<svg width="22" height="20" viewBox="0 0 22 20" fill="#ffffff" xmlns="http://www.w3.org/2000/svg">
<path d="M21 9.25C21.4142 9.25 21.75 9.58579 21.75 10C21.75 10.4142 21.4142 10.75 21 10.75V9.25ZM0.469669 10.5303C0.176777 10.2374 0.176777 9.76256 0.469669 9.46967L5.24264 4.6967C5.53553 4.40381 6.01041 4.40381 6.3033 4.6967C6.59619 4.98959 6.59619 5.46447 6.3033 5.75736L2.06066 10L6.3033 14.2426C6.59619 14.5355 6.59619 15.0104 6.3033 15.3033C6.01041 15.5962 5.53553 15.5962 5.24264 15.3033L0.469669 10.5303ZM21 10.75L1 10.75V9.25L21 9.25V10.75Z"/>
</svg>
