<svg width="22" height="20" viewBox="0 0 22 20" fill="#ffffff" xmlns="http://www.w3.org/2000/svg">
<path d="M1 9.25C0.585786 9.25 0.25 9.58579 0.25 10C0.25 10.4142 0.585786 10.75 1 10.75L1 9.25ZM21.5303 10.5303C21.8232 10.2374 21.8232 9.76256 21.5303 9.46967L16.7574 4.6967C16.4645 4.40381 15.9896 4.40381 15.6967 4.6967C15.4038 4.98959 15.4038 5.46447 15.6967 5.75736L19.9393 10L15.6967 14.2426C15.4038 14.5355 15.4038 15.0104 15.6967 15.3033C15.9896 15.5962 16.4645 15.5962 16.7574 15.3033L21.5303 10.5303ZM1 10.75L21 10.75V9.25L1 9.25L1 10.75Z"/>
</svg>
