<svg xmlns="http://www.w3.org/2000/svg" style="display:none" id="customSvgLibrary"><symbol xmlns:xlink="http://www.w3.org/1999/xlink" version="1.1" viewbox="0 0 1280 1024" xml:space="preserve" id="symbol_zqcpb599">
<desc>Created with Fabric.js 5.3.0</desc>
<defs>
</defs>
<g transform="matrix(1 0 0 1 640 512)" id="background-logo">
<rect style="stroke: none; stroke-width: 0; stroke-dasharray: none; stroke-linecap: butt; stroke-dashoffset: 0; stroke-linejoin: miter; stroke-miterlimit: 4; fill: rgb(255,255,255); fill-opacity: 0; fill-rule: nonzero; opacity: 1;" paint-order="stroke" x="-640" y="-512" rx="0" ry="0" width="1280" height="1024"></rect>
</g>
<g transform="matrix(0.7953038628442698 0 0 0.7953038628442698 297.3534915001837 487.4515482370068)" id="logo-logo">
<g style="" paint-order="stroke">
		<g transform="matrix(0.7460700846538599 0 0 0.7460700846538599 0 7.152781353375929)">
<g style="" paint-order="stroke">
		<g transform="matrix(1 0 0 1 0 0)">
<path style="stroke: none; stroke-width: 1; stroke-dasharray: none; stroke-linecap: butt; stroke-dashoffset: 0; stroke-linejoin: miter; stroke-miterlimit: 4; fill: rgb(0,0,0); fill-rule: nonzero; opacity: 1;" paint-order="stroke" transform=" translate(-124.99997941867758, -111.195055)" d="M 248.36264 11.07152 C 247.07034 3.49961 245.25002 0.02207 242.52332 0 C 242.20522000000003 0.00215 241.89789000000002 0.11411 241.65299000000002 0.31702 C 225.54909 13.66326 182.92124 42.31076 154.43462000000002 59.86763 C 154.72971 58.9572 154.92562000000004 58.07248 154.97057000000004 57.33725 C 155.04915000000003 56.049789999999994 154.71759000000003 55.1068 153.98505000000003 54.53519 C 151.86440000000002 52.87957 149.00313000000003 53.20736 147.03266000000002 54.06692 C 145.55143 54.71334 144.30541000000002 55.66064 143.10030000000003 56.57672 C 142.71384000000003 56.8706 142.32740000000004 57.16447 141.93502000000004 57.44651 C 136.17104000000003 61.58178 129.21650000000002 63.030170000000005 121.85396000000003 64.56415 C 117.67186000000002 65.43500999999999 113.34713000000002 66.33548 109.26407000000003 67.7758 C 96.1537 72.39979 85.8812 82.38784 76.83047 91.72598 C 76.60266 91.75854000000001 76.37889 91.82744000000001 76.18405 91.97814000000001 C 69.62779 97.03918000000002 62.407889999999995 101.17499000000001 54.72456 104.27038000000002 L 53.70406 104.67675000000001 C 52.08128 105.31940000000002 50.402519999999996 105.98412000000002 48.81472 106.87006000000001 C 46.267250000000004 108.29154000000001 44.77579 110.0365 44.38127 112.05542000000001 C 44.02011 113.90749000000001 44.63478 115.95064 46.06864 117.66116000000001 C 46.989020000000004 118.75970000000001 48.12887 119.60634 49.23131 120.34669000000001 L 47.61714 122.02087000000002 C 31.94316 138.27777000000003 25.77928 143.57186000000002 6.167560000000002 153.86024 C 4.894630000000002 154.05885 3.8170800000000016 155.00669 2.960210000000002 156.68383 C -2.3225799999999985 167.02657 -0.10396999999999812 210.15923 6.211700000000002 219.90615 C 7.280640000000002 221.5553 8.507280000000002 222.39011 9.860400000000002 222.39011 C 9.917450000000002 222.39011 9.974510000000002 222.38849 10.032100000000002 222.38581 C 10.394330000000002 222.36696999999998 10.735040000000001 222.20603 10.979400000000002 221.93746 C 27.51321 203.79673 64.97877 167.65604 82.42248 151.32029999999997 C 82.458 151.39457999999996 82.48814999999999 151.47315999999998 82.52448 151.54688999999996 C 84.55632 155.66709999999995 88.10222 158.53481999999997 92.00981999999999 159.21837999999997 C 92.55935999999998 159.31416999999996 93.11158999999999 159.36046999999996 93.66112999999999 159.36046999999996 C 97.01433999999999 159.36046999999996 100.24348999999998 157.63326999999995 101.90421999999998 154.99132999999998 C 102.25568999999999 155.22304999999997 102.60526999999998 155.44843999999998 102.94785999999998 155.66223999999997 C 104.59539999999998 156.68973999999997 106.40010999999998 157.72153999999998 108.43571999999998 158.30821999999998 C 109.59346999999997 158.64190999999997 110.79264999999998 158.80230999999998 111.99398999999997 158.80230999999998 C 115.79137999999998 158.80177999999998 119.60868999999997 157.20158999999998 122.20567999999997 154.43478999999996 C 124.32847999999997 155.67219999999998 126.57991999999997 156.49139999999997 129.07975999999996 156.57347999999996 C 129.20354999999998 156.57724999999996 129.32627999999997 156.57939999999996 129.45007999999996 156.57939999999996 C 133.52505999999997 156.57939999999996 137.41502999999994 154.36078999999995 139.55922999999996 150.91620999999998 C 140.63380999999995 151.16164999999998 141.70894999999996 151.29016 142.75903999999997 151.29016 C 144.88990999999996 151.29016 146.91691999999998 150.78959999999998 148.61720999999997 149.81054999999998 C 150.30780999999996 148.83741999999998 151.82132999999996 147.33951 153.24441999999996 145.23176999999998 C 156.66355999999996 140.16993 158.08189999999996 134.25336 157.34429999999998 128.44606 C 157.95277 128.37259 158.56171999999998 128.29737999999998 159.17577999999997 128.20573 C 161.23615999999998 127.8984 163.38478999999998 127.43605 165.13782999999998 126.14374999999998 C 167.32628999999997 124.53011999999998 168.31180999999998 121.84377999999998 167.53404999999998 119.61116999999999 C 167.50961999999998 119.54105999999999 167.47403999999997 119.46934999999999 167.44549999999998 119.39829999999999 C 167.6933 119.40449 167.93986999999998 119.41470999999999 168.18908 119.41470999999999 C 169.64500999999998 119.41470999999999 171.12032 119.30329999999998 172.56709999999998 118.98626999999999 C 174.6393 118.53146999999998 179.59161999999998 117.01093999999999 180.81825999999998 112.7169 C 181.45297999999997 110.49262999999999 181.18391999999997 108.86689 180.59395999999998 107.69583 C 180.81033 107.69946 181.02649999999997 107.70968 181.24292999999997 107.70968 C 183.12997999999996 107.70968 185.01973999999998 107.56651000000001 186.90625999999997 107.21881 C 187.95904 107.0245 189.18568999999997 106.73601000000001 190.30252999999996 106.06914 C 192.25093999999996 104.90493000000001 193.52225999999996 102.68686000000001 193.54109999999997 100.41819000000001 C 193.55252999999996 99.10651000000001 193.31079999999997 98.05103000000001 192.93637999999999 97.16348 L 195.24084 97.63121000000001 C 196.87277999999998 97.96277 198.60968 98.26310000000001 200.30725999999999 98.26310000000001 C 202.29282999999998 98.26310000000001 204.22401 97.85189000000001 205.87048 96.59888000000001 C 208.65100999999999 94.48146000000001 209.42821999999998 90.28752000000001 207.72038999999998 87.27985000000001 C 209.97343999999998 85.64254000000001 228.01135999999997 72.68934000000002 243.26497999999998 66.45064 C 245.78931999999998 66.17452 247.50736999999998 62.61840000000001 248.65435 55.31938000000001 C 249.57473 49.46391000000001 250.05106 41.60296000000001 249.99563 33.184950000000015 C 249.94022 24.76748 249.36053 16.91408 248.36264 11.07152 z" stroke-linecap="round"></path>
</g>
		<g transform="matrix(1 0 0 1 -20.715644924540157 26.607608193227833)">
<path style="stroke: none; stroke-width: 1; stroke-dasharray: none; stroke-linecap: butt; stroke-dashoffset: 0; stroke-linejoin: miter; stroke-miterlimit: 4; fill: rgb(0,150,136); fill-rule: nonzero; opacity: 1;" paint-order="stroke" transform=" translate(-104.28433449413743, -137.80266319322783)" d="M 204.2023 94.40559 C 202.06381000000002 96.03698 198.87820000000002 95.55203 195.79169000000002 94.93467 L 159.32738 87.52718999999999 C 158.57782 87.37271999999999 157.85027 87.85779999999998 157.69593 88.60743 C 157.55262 89.34589 158.02668 90.07346 158.77624 90.22779 L 186.47724 95.84954 L 188.19684 96.20222000000001 C 189.98256 96.89682 190.8093 98.23056000000001 190.78723000000002 100.39105 C 190.77620000000002 101.70273 190.01559000000003 103.03661000000001 188.89129000000003 103.69797000000001 C 188.15269000000004 104.14995000000002 187.21575 104.35946000000001 186.41110000000003 104.51367000000002 C 183.15927000000002 105.10896000000002 179.89642000000003 105.04275000000001 176.58949000000004 104.67904000000001 C 176.14862000000005 104.56883000000002 175.74069000000003 104.52470000000001 175.39898000000005 104.54677000000001 C 173.15029000000004 104.26016000000001 170.86851000000004 103.85230000000001 168.54266000000004 103.43343000000002 C 163.58227000000005 102.54049000000002 158.45651000000004 101.62576000000001 153.30876000000004 101.90133000000002 C 152.54823000000005 101.94534000000002 151.96397000000005 102.59566000000001 152.00810000000004 103.34528000000002 C 152.05211000000003 104.10595000000002 152.69139000000004 104.70110000000001 153.46309000000005 104.65710000000001 C 158.29121000000006 104.39242000000002 163.25160000000005 105.28522000000001 168.05765000000005 106.14505000000001 C 170.37247000000005 106.55303 172.72038000000006 106.97178000000001 175.07935000000006 107.26942000000001 C 175.10141000000007 107.28045000000002 175.13445000000007 107.28045000000002 175.15651000000005 107.28045000000002 C 175.43208000000004 107.31355000000002 175.71870000000004 107.35769000000002 175.99428000000006 107.37975000000002 C 176.03835000000007 107.39079000000001 176.08248000000006 107.40182000000001 176.12654000000006 107.40182000000001 C 176.65562000000006 107.55603000000002 177.39416000000006 107.88677000000001 177.89021000000005 108.53710000000001 C 178.49646000000004 109.34189 178.58467000000005 110.4882 178.16578000000004 111.96526000000001 C 177.32801000000003 114.90847000000001 173.21642000000003 116.02181000000002 171.98185000000004 116.29739000000002 C 169.13787000000005 116.91461000000002 166.09550000000004 116.61696000000002 163.15235000000004 116.33036000000003 L 146.66180000000003 114.72103000000003 C 145.91230000000002 114.64393000000003 145.22874000000002 115.19508000000003 145.15164000000001 115.95574000000003 C 145.07454 116.70524000000003 145.63673000000003 117.38866000000003 146.38623 117.45473000000004 L 162.87678 119.07509000000005 C 162.99801 119.08612000000005 163.13035 119.09715000000004 163.2516 119.10819000000005 C 164.43107 119.25163000000005 164.86091 120.30980000000005 164.92705999999998 120.51918000000005 C 165.1145 121.03723000000005 165.05939999999998 121.59943000000005 164.86091 122.12851000000005 C 164.59636999999998 122.84517000000005 164.07832 123.49536000000005 163.50511 123.92542000000005 C 162.30362 124.80718000000005 160.74933000000001 125.18193000000005 158.7652 125.47957000000005 C 152.60326 126.39457000000006 146.98152 126.37251000000005 141.13924 125.41337000000006 C 138.94565 121.84190000000005 137.22612 118.23733000000006 136.87345 114.39028000000006 C 136.77415 113.32107000000006 136.77415 112.25187000000007 136.77415 111.11646000000006 C 136.78518 109.93705000000006 136.78518 108.72454000000006 136.66394 107.50086000000006 C 136.45444 105.34038000000005 135.71597 102.35316000000006 133.38998 100.46826000000006 C 132.93814 100.09338000000005 132.42009000000002 99.79574000000005 131.86892 99.56429000000006 C 130.87682 99.15645000000006 129.78555 98.99107000000005 128.71621 99.10141000000006 C 127.30534999999999 99.25562000000006 126.08179999999999 99.89504000000005 125.26610999999998 100.92011000000007 C 124.47248999999998 101.91221000000006 124.16380999999998 103.06969000000007 123.88822999999998 104.27117000000007 C 123.81099999999998 104.61295000000007 123.75581999999999 104.96563000000008 123.67872999999997 105.30727000000007 C 122.38897999999998 102.25386000000007 120.55924999999998 99.55326000000008 119.05998999999997 98.57232000000008 C 116.54682999999997 96.95182000000007 112.73274999999997 96.52190000000007 110.29668999999997 98.85893000000007 C 108.33454999999996 100.73280000000007 108.11413999999996 103.62085000000008 107.95980999999998 105.53885000000007 L 107.83856999999998 107.15920000000007 C 107.43071999999998 106.66308000000006 106.91266999999998 106.22227000000007 106.25130999999998 105.74835000000007 C 104.87341999999998 104.76715000000007 102.78990999999998 103.26816000000008 100.38694999999997 103.72001000000007 C 97.82951999999997 104.21600000000008 95.84544999999997 106.38751000000008 94.47858999999997 110.19055000000007 C 93.13380999999997 113.91636000000007 92.28500999999997 117.78547000000007 91.93232999999996 121.70975000000007 C 91.91026999999997 121.96326000000008 91.88818999999997 122.21677000000007 91.86612999999997 122.47028000000007 C 91.38117999999997 122.24987000000007 90.83002999999997 122.08450000000008 90.27886999999997 121.99636000000007 C 89.31972999999996 121.80891000000007 88.33879999999996 121.84188000000006 87.52308999999997 122.09539000000007 C 87.09303999999997 122.22780000000006 86.67429999999997 122.42614000000006 86.27734999999997 122.66862000000006 L 86.2663 122.66862000000006 C 85.10895000000001 123.37425000000006 84.07271 124.52056000000006 83.17991 126.07485000000005 C 81.1186 129.67942000000005 80.18166000000001 134.06658000000004 80.22566 139.88680000000005 C 80.25876000000001 143.27083000000005 80.62261000000001 146.09267000000006 81.36107 148.53989000000004 C 64.4517 164.34696000000005 26.598479999999995 200.81139000000005 9.479600000000005 219.49546000000004 C 9.192990000000005 219.29713000000004 8.862240000000005 218.92223000000004 8.520600000000005 218.40418000000003 C 7.010440000000005 216.07819000000003 5.753800000000005 211.60290000000003 4.794790000000005 206.06942000000004 C 2.0169500000000053 190.01975000000004 1.763440000000005 165.08541000000002 5.412150000000005 157.94248000000005 C 5.841930000000005 157.10471000000004 6.304950000000005 156.59769000000006 6.646600000000005 156.57563000000005 C 6.845070000000005 156.56460000000004 7.043550000000005 156.50956000000005 7.219820000000005 156.42142000000004 C 26.929090000000006 146.09267000000006 33.58708000000001 140.53713000000005 49.60351000000001 123.93643000000003 L 76.64316000000001 95.88260000000002 C 86.01278 86.16030000000002 96.62815 75.15929000000003 110.17542 70.37518000000003 C 114.08854000000001 68.99730000000002 118.32149 68.11539000000003 122.41102000000001 67.26660000000003 C 129.73036000000002 65.73451000000003 137.30322 64.15815000000002 143.54232000000002 59.68285000000002 C 143.95016 59.385200000000026 144.35801 59.07653000000003 144.76586000000003 58.767850000000024 C 145.89023000000003 57.91905000000003 146.95943000000003 57.10336000000002 148.13898000000003 56.596340000000026 C 148.80034000000003 56.30973000000002 149.64901000000003 56.08932000000003 150.47574000000003 56.11139000000003 L 150.47574000000003 56.12242000000003 C 151.09310000000002 56.13346000000003 151.69942000000003 56.276630000000026 152.20644000000004 56.64047000000003 C 152.51511000000005 57.63244000000003 151.09310000000005 61.358380000000025 150.03492000000006 62.55986000000003 C 144.25884000000005 66.06526000000002 139.23225000000005 68.99730000000002 135.36314000000004 71.08068000000003 C 135.34108000000003 71.10275000000003 135.31901000000005 71.12469000000003 135.29707000000005 71.13572000000003 C 133.01536000000004 71.09172000000004 130.72247000000004 71.01462000000004 128.44061000000005 70.84911000000004 C 128.31952000000004 70.83808000000003 128.20918000000006 70.84911000000004 128.09897000000004 70.87118000000004 C 127.49278000000004 70.97048000000004 127.01873000000003 71.47750000000003 126.96356000000004 72.11692000000004 C 126.90853000000004 72.87745000000004 127.48175000000005 73.53881000000004 128.24228000000005 73.59384000000004 C 131.40590000000006 73.82542000000004 134.60262000000006 73.93562000000004 137.77727000000004 73.93562000000004 L 138.87958000000003 73.93562000000004 C 158.00460000000004 75.58909000000004 177.78002000000004 79.27089000000004 199.25295000000003 85.22325000000004 C 200.42139000000003 85.54296000000004 201.56785000000002 85.89577000000004 202.55988000000002 86.34762000000003 C 203.59604000000002 86.83257000000003 204.48891000000003 87.43889000000003 205.10621000000003 88.29872000000003 C 206.42899 90.12849 205.99907 93.03873 204.2023 94.40559 z" stroke-linecap="round"></path>
</g>
		<g transform="matrix(1 0 0 1 22.14149205928345 -31.425826968100353)">
<path style="stroke: none; stroke-width: 1; stroke-dasharray: none; stroke-linecap: butt; stroke-dashoffset: 0; stroke-linejoin: miter; stroke-miterlimit: 4; fill: rgb(0,0,0); fill-rule: nonzero; opacity: 1;" paint-order="stroke" transform=" translate(-147.14147147796103, -79.76922803189964)" d="M 55.75449 106.82862 L 54.71839 107.23633 C 53.10893 107.87576 51.58774 108.48208 50.15468 109.27570999999999 C 48.34701 110.28974999999998 47.32181 111.39204999999998 47.09036 112.58263 C 46.89189 113.59666999999999 47.29987 114.83138 48.18163 115.88955 C 48.97526 116.84856 50.07757 117.60922 51.17988 118.32561 L 68.16649 100.69972 C 64.1982 103.04764 60.04248 105.09792 55.75449 106.82862 z M 96.28638 149.79657 C 94.1699 146.64384 93.60784 142.85197 93.10069999999999 139.51195 C 92.43933999999999 135.14685 91.76680999999999 130.62741000000003 91.74488 126.08591000000001 C 91.60158 125.93157000000001 91.48034 125.74413000000001 91.42517 125.52372000000001 C 91.40324 125.43545000000002 91.31496 125.32538000000001 91.19372 125.22607 C 91.11662 125.15987000000001 91.01731 125.0938 90.91815 125.03877000000001 C 90.20161999999999 124.64182000000001 89.05518 124.49865000000001 88.36085 124.71905000000001 C 87.36861 125.03877000000001 86.42078 125.95349000000002 85.57198 127.44172 C 83.76418 130.60534 82.93745 134.55155 82.98145 139.86475000000002 C 83.02559 144.29605 83.66501 147.614 84.99875999999999 150.32564000000002 C 86.61912 153.61049000000003 89.48509999999999 155.98049000000003 92.48346999999998 156.49854000000002 C 93.97141999999998 156.76308000000003 95.51481999999999 156.50957000000002 96.82649999999998 155.88132000000002 C 98.02797999999999 155.30809000000002 99.04213999999997 154.43723000000003 99.67053999999999 153.36801000000003 C 98.41376 152.35387 97.22331 151.18549 96.28638 149.79657 z M 115.5216 149.23438 C 113.50443000000001 147.40452 111.41001 145.49755 109.89986 143.02839 C 108.65425 140.98914 107.82752 138.57502 107.27636000000001 135.4445 C 106.16302000000002 129.11726000000002 106.659 122.7128 107.12202 116.51783 L 107.29843000000001 114.33528 C 106.81348000000001 111.56846999999999 106.51584000000001 110.24562999999999 106.06385000000002 109.42993 L 106.06385000000002 109.41889 C 105.73324000000002 108.79077000000001 105.30319000000001 108.47106000000001 104.65287000000002 107.99701 C 103.27498000000003 107.00491000000001 102.05144000000003 106.21127 100.90499000000003 106.43169 C 99.37290000000003 106.7183 98.08315000000003 108.30569 97.06898000000002 111.12753000000001 C 95.38241000000002 115.80130000000001 94.51168000000003 120.68459000000001 94.48961000000003 125.64498 C 94.48961000000003 127.83856 94.64395000000003 130.04317 94.88643000000003 132.24779 C 95.13993000000004 134.55158 95.48171000000004 136.84447 95.82336000000004 139.10425 C 96.28638000000004 142.15753 96.80443000000004 145.61879000000002 98.57914000000004 148.25333 C 99.43897000000004 149.54308 100.59631000000005 150.62331 101.83102000000004 151.56025 C 102.09557000000004 151.64838 102.29390000000004 151.82479 102.44825000000004 152.02328 C 103.10961000000005 152.48616 103.77110000000005 152.9271 104.41039000000005 153.32392 C 105.88744000000005 154.24996 107.48574000000005 155.16468999999998 109.19437000000005 155.6608 C 111.01320000000005 156.17899 112.95327000000005 156.16796 114.78315000000005 155.70494 C 116.69012000000005 155.21984999999998 118.47585000000005 154.24994999999998 119.86477000000005 152.88309999999998 C 118.38771 151.79167 116.95466 150.53502 115.5216 149.23438 z M 130.54607 146.14786 C 126.26910999999998 142.73073000000002 123.54643999999999 139.19223 122.20165999999999 135.33415000000002 C 120.93397999999999 131.69662000000002 120.93397999999999 127.77247000000003 121.13244999999999 124.07963000000002 C 121.35285999999999 119.89081000000002 121.82677 115.69109000000002 122.49929999999999 111.53549000000002 C 122.36689 109.49611000000003 121.52913 107.06006000000002 120.50404999999999 105.00965000000002 C 119.52299 103.03660000000002 118.37668 101.42715000000003 117.54993999999999 100.88702000000002 C 115.97358999999999 99.86195000000002 113.53738999999999 99.56430000000002 112.20364 100.84302000000002 C 111.0903 101.91223000000002 110.85884999999999 103.77519000000002 110.71555 105.74837000000002 L 110.34079999999999 110.69773000000002 L 109.87777999999999 116.72732000000002 C 109.41476999999999 122.75691000000002 108.94084999999998 128.98484000000002 109.98798999999998 134.97058 C 110.47306999999998 137.74827000000002 111.20063999999998 139.85373 112.25880999999998 141.59532000000002 C 113.54841999999998 143.72284000000002 115.49952999999998 145.48649 117.37352999999999 147.19501000000002 C 119.03802999999999 148.71633000000003 120.86789999999999 150.14925000000002 122.78589999999998 151.37279000000004 C 123.12754999999999 151.58217000000005 123.46919999999999 151.79167000000004 123.81097999999999 151.99015000000003 C 125.46443999999998 152.97109000000003 127.19513999999998 153.75382000000002 129.16817999999998 153.81989000000002 C 131.04218999999998 153.88610000000003 132.91606 153.30184000000003 134.48123999999999 152.25469 C 135.3852 151.64837 136.18986999999998 150.89889000000002 136.82929 150.03905 C 134.812 149.20128 132.77275 147.93359 130.54607 146.14786 z M 154.60941 128.72031 C 153.06629 128.84168000000003 151.53406 128.89685 150.0239 128.89685 C 147.69805 128.89685 145.40529 128.7534 143.11242 128.47783 C 143.29971999999998 128.7534 143.47627 129.02899000000002 143.66357 129.30457 C 144.09349 129.93296 143.92811 130.79279000000002 143.29971999999998 131.21154 C 142.67145 131.64159 141.81176 131.47608000000002 141.38170999999997 130.84783000000002 C 137.86540999999997 125.67793000000002 134.66882999999996 120.54127000000001 134.12857999999997 114.64395000000002 C 134.01836999999998 113.44247000000001 134.01836999999998 112.25189000000002 134.01836999999998 111.10545000000002 C 134.02942 109.94810000000003 134.02942 108.85683000000002 133.93009999999998 107.77646000000001 C 133.77590999999998 106.28851000000002 133.34598999999997 104.32636000000001 132.10036999999997 103.02558000000002 L 132.10036999999997 103.01455000000001 C 131.96808999999996 102.87124000000001 131.81375999999997 102.72807000000002 131.65941999999998 102.60670000000002 C 130.95392999999999 102.03348000000001 129.93989 101.73584000000002 129.01385 101.84617000000001 C 128.53993 101.89031000000001 127.87844 102.07762000000001 127.42658999999999 102.63980000000001 C 126.99667 103.17992000000001 126.78715999999999 103.97355 126.57779 104.88855000000001 C 126.25807999999999 106.28851 125.97147 107.69936000000001 125.70693 109.11034000000001 C 124.75896 114.09279000000001 124.14174 119.16339 123.8772 124.22307 C 123.70079 127.64007000000001 123.68976 131.2336 124.8031 134.41942 C 125.97147 137.78139000000002 128.40767 140.9119 132.26575 143.99841 C 134.93338 146.13682 137.2591 147.4376 139.58509 148.08793 C 139.81654 148.15414 140.03695000000002 148.20916 140.26838 148.2533 C 142.81478 148.82639 145.32807 148.52886999999998 147.24609 147.42656 C 148.55777 146.66589 149.78144 145.44249 150.96086 143.68973 C 152.69142 141.1323 153.84891 138.32148999999998 154.41109 135.42240999999999 C 154.82994 133.2178 154.89601 130.95802 154.60941 128.72031 z M 245.64912 11.534 C 244.56881 5.2178 243.33424000000002 3.43206 242.80514000000002 2.9360800000000005 C 224.88160000000002 17.629800000000003 179.70904000000002 47.81100000000001 151.61116000000004 64.84161 C 151.44592000000003 64.99595000000001 151.28055000000003 65.12822 151.11517000000003 65.22753 C 151.00497000000004 65.29359 150.88372000000004 65.32656 150.76236000000003 65.35966 C 149.41757000000004 66.16432 148.11693000000002 66.94705 146.86028000000002 67.68565000000001 C 144.63360000000003 69.00837000000001 142.55022000000002 70.22087 140.65429 71.30125000000001 C 159.45966 73.03182000000001 178.92638 76.73555000000002 199.98052 82.56681 C 202.0859 83.15107 204.23540000000003 83.84539000000001 205.91094 85.19018 C 207.12345000000002 84.29738 226.30364 70.35316 242.43035 63.81655 C 242.59571 63.75035 242.77212 63.71724 242.94846 63.71724 C 242.95949000000002 63.71724 244.62400000000002 63.188159999999996 245.93573 54.887739999999994 C 246.5089 51.217099999999995 246.90578 46.70869999999999 247.09314 41.770379999999996 C 247.21439 39.025639999999996 247.25845 36.1485 247.23645000000002 33.20542999999999 C 247.18135 24.92707 246.61916 17.23298 245.64912 11.534 z" stroke-linecap="round"></path>
</g>
		<g transform="matrix(1 0 0 1 43.22682236353529 -12.369200000000006)">
<path style="stroke: none; stroke-width: 1; stroke-dasharray: none; stroke-linecap: butt; stroke-dashoffset: 0; stroke-linejoin: miter; stroke-miterlimit: 4; fill: rgb(0,0,0); fill-rule: nonzero; opacity: 1;" paint-order="stroke" transform=" translate(-168.22680178221287, -98.82585499999999)" d="M 154.60941 128.72031 C 154.89602 130.95803 154.82995 133.21781000000001 154.41106 135.42243000000002 C 141.45893999999998 138.15613000000002 136.38835 134.27599 132.42007999999998 124.61976000000001 C 129.53189999999998 117.55406000000002 130.88785 108.33865000000002 132.10036 103.02558000000002 C 133.34598 104.32636000000002 133.7759 106.28850000000001 133.93009 107.77646000000001 C 134.02941 108.85684000000002 134.02941 109.94811000000001 134.01836 111.10545000000002 C 134.01836 112.25189000000002 134.01836 113.44247000000001 134.12857 114.64395000000002 C 134.66881999999998 120.54127000000001 137.8654 125.67793000000002 141.3817 130.84783000000002 C 141.81175 131.47608000000002 142.67145 131.64159 143.29971 131.21154 C 143.9281 130.79279000000002 144.09347 129.93296 143.66356000000002 129.30457 C 143.47626000000002 129.02900000000002 143.29971 128.75341 143.11241 128.47783 C 145.40529 128.7534 147.69804000000002 128.89685 150.02389000000002 128.89685 C 151.53406 128.89685 153.06628 128.84167 154.60941 128.72031 z M 200.47649 78.26778 C 200.47649 78.26778 169.22609 68.17060000000001 146.86028000000002 67.68565000000001 C 144.63360000000003 69.00837000000001 142.55022000000002 70.22087 140.65429 71.30125000000001 C 159.45966 73.03182000000001 178.92638 76.73555000000002 199.98052 82.56681 C 202.0859 83.15107 204.23540000000003 83.84539000000001 205.91094 85.19018 C 207.12345000000002 84.29738 226.30364 70.35316 242.43035 63.81655 C 242.59571 63.75035 242.77212 63.71724 242.94846 63.71724 C 242.95949000000002 63.71724 244.62400000000002 63.188159999999996 245.93573 54.887739999999994 C 246.5089 51.217099999999995 246.90578 46.70869999999999 247.09314 41.770379999999996 L 200.47649 78.26778 z M 122.20165 135.33415 C 120.93397 131.69662 120.93397 127.77247 121.13244 124.07963 C 121.35285 119.89080999999999 121.82676000000001 115.69108999999999 122.49929 111.53549 C 122.36688000000001 109.49611 121.52912 107.06006 120.50404 105.00965 C 119.41277000000001 110.17953999999999 115.83027 129.60219999999998 120.77962000000001 140.07413 C 123.66766000000001 146.192 129.44374000000002 149.99491 134.48123 152.25468999999998 C 135.38519000000002 151.64836999999997 136.18986 150.89889 136.82928 150.03904999999997 C 134.81198 149.20127999999997 132.77273000000002 147.93359999999998 130.54605 146.14785999999998 C 126.2691 142.73073 123.54643 139.19223 122.20165 135.33415 z M 109.89986 143.02838 C 108.65425 140.98913 107.82752 138.57501 107.27636000000001 135.44449 C 106.16302000000002 129.11725 106.659 122.71279 107.12202 116.51782 L 107.29843000000001 114.33527 C 106.81348000000001 111.56845999999999 106.51584000000001 110.24561999999999 106.06385000000002 109.42992 C 104.86237000000001 114.3132 100.86085000000001 132.85396 106.38343000000002 144.40627 C 108.62115000000001 149.08004 111.70766000000002 152.88309 114.78315000000002 155.70493000000002 C 116.69012000000002 155.21984 118.47585000000002 154.24994 119.86477000000002 152.88309 C 118.38772000000002 151.79167 116.95467000000002 150.53502 115.52161000000002 149.23438000000002 C 113.50443 147.40451 111.41001 145.49754 109.89986 143.02838 z M 96.28638 149.79657 C 94.1699 146.64384 93.60784 142.85197 93.10069999999999 139.51195 C 92.43933999999999 135.14685 91.76680999999999 130.62741000000003 91.74488 126.08591000000001 C 91.60158 125.93157000000001 91.48034 125.74413000000001 91.42517 125.52372000000001 C 91.40324 125.43545000000002 91.31496 125.32538000000001 91.19372 125.22607 C 89.92604 127.47482000000001 88.22844 132.45727 90.41099 141.24264 C 92.2079 148.47384 94.67705 153.08141999999998 96.8265 155.88133 C 98.02798 155.3081 99.04213999999999 154.43724 99.67054 153.36802 C 98.41376 152.35387 97.22331 151.18549 96.28638 149.79657 z" stroke-linecap="round"></path>
</g>
		<g transform="matrix(1 0 0 1 -19.66403921276607 26.61391499999999)">
<path style="stroke: none; stroke-width: 1; stroke-dasharray: none; stroke-linecap: butt; stroke-dashoffset: 0; stroke-linejoin: miter; stroke-miterlimit: 4; fill: rgb(0,150,136); fill-rule: nonzero; opacity: 1;" paint-order="stroke" transform=" translate(-105.33594020591151, -137.80897)" d="M 86.2663 122.66865 C 85.10895000000001 123.37428 84.07271 124.52059 83.17991 126.07488 C 81.1186 129.67945 80.18166000000001 134.06661 80.22566 139.88683 C 80.25876000000001 143.27086 80.62261000000001 146.0927 81.36107 148.53992 C 64.4517 164.34699 26.598479999999995 200.81142 9.479600000000005 219.49549 C 9.192990000000005 219.29716 8.862240000000005 218.92226 8.520600000000005 218.40420999999998 C 7.010440000000005 216.07822 5.753800000000005 211.60293 4.794790000000005 206.06945 L 77.18328000000001 143.40312999999998 C 77.1833 143.40312 76.64317 128.6432 86.2663 122.66865 z M 91.86611 122.47031 C 91.88817 122.21679999999999 91.91025 121.96329 91.93231 121.70978 L 90.27885 121.99638999999999 C 90.83001 122.08453 91.38116 122.2499 91.86611 122.47031 z M 139.28743 113.78411 C 137.83231 100.47931 131.86891 99.56431 131.86891 99.56431 C 132.42007 99.79576 132.93812 100.0934 133.38997 100.46828000000001 C 135.71596 102.35318000000001 136.45442 105.3404 136.66393 107.50088000000001 C 136.78518 108.72456000000001 136.78518 109.93707 136.77414 111.11648000000001 C 136.77414 112.25189 136.77414 113.32109000000001 136.87344 114.39030000000001 C 137.22611999999998 118.23735 138.94564 121.84191000000001 141.13923 125.41339 C 146.98152 126.37253000000001 152.60325 126.39459000000001 158.76519 125.47959 C 160.74931999999998 125.18194 162.30361 124.8072 163.5051 123.92544000000001 C 164.07831 123.49539000000001 164.59636 122.84519 164.8609 122.12853000000001 C 152.77966 123.70489 140.68738 126.57086 139.28743 113.78411 z M 177.89021 108.53712 C 178.49645999999998 109.34191 178.58467 110.48822 178.16577999999998 111.96528 C 177.32800999999998 114.90849 173.21641999999997 116.02183000000001 171.98184999999998 116.29741000000001 C 169.13787 116.91463000000002 166.0955 116.61698000000001 163.15234999999998 116.33038000000002 L 146.66179999999997 114.72105000000002 C 146.66179999999997 114.72105000000002 170.31735999999998 115.88956000000002 174.05419999999998 113.51957000000002 C 177.04146999999998 111.63453000000001 176.38004999999998 108.55918000000001 175.99427999999997 107.37977000000002 C 176.03834999999998 107.39081000000002 176.08247999999998 107.40184000000002 176.12653999999998 107.40184000000002 C 176.65562 107.55605 177.39417 107.88679 177.89021 108.53712 z M 190.78723 100.39104 C 190.7762 101.70272 190.01559 103.0366 188.89129 103.69796000000001 C 188.15269 104.14994000000002 187.21574999999999 104.35945000000001 186.4111 104.51366000000002 C 183.15927 105.10895000000002 179.89642 105.04274000000001 176.58949 104.67903000000001 C 176.14862000000002 104.56882000000002 175.74069 104.52469 175.39898000000002 104.54676 C 173.15029 104.26015000000001 170.86851000000001 103.85229000000001 168.54266 103.43342000000001 C 163.58227000000002 102.54048000000002 158.45651 101.62575000000001 153.30876 101.90132000000001 C 153.30876 101.90132000000001 162.13826 100.54537000000002 172.56611 101.82409000000001 C 182.74038000000002 103.05867 187.97636 102.50752000000001 186.47723000000002 95.84953000000002 L 188.19683000000003 96.20221000000002 C 189.98256 96.89681 190.8093 98.23056 190.78723 100.39104 z M 204.2023 94.40559 C 202.06381000000002 96.03698 198.87820000000002 95.55203 195.79169000000002 94.93467 L 159.32738 87.52718999999999 C 159.32738 87.52718999999999 193.71941 92.61971 198.6467 92.98356999999999 C 202.46071 93.27017999999998 203.39765 88.89405 202.55988000000002 86.34764999999999 C 203.59604000000002 86.83259999999999 204.48891000000003 87.43891999999998 205.10621000000003 88.29874999999998 C 206.42899 90.12849 205.99907 93.03873 204.2023 94.40559 z M 150.03493 62.55989 C 144.25885 66.06529 139.23226 68.99733 135.36315 71.08071000000001 C 135.34108999999998 71.10278000000001 135.31902 71.12472000000001 135.29708 71.13575000000002 C 133.01537 71.09175000000002 130.72248 71.01465000000002 128.44062 70.84914000000002 C 128.31953 70.83811000000001 128.20919 70.84914000000002 128.09897999999998 70.87121000000002 C 128.09897999999998 70.87121000000002 151.69943999999998 63.48580000000002 150.47576999999998 56.122450000000015 C 151.09312999999997 56.133490000000016 151.69944999999998 56.276660000000014 152.20647 56.64050000000002 C 152.51512 57.63247 151.09311 61.35841 150.03493 62.55989 z" stroke-linecap="round"></path>
</g>
</g>
</g>
		<g transform="matrix(-0.9808531594094084 0 0 -0.9808531594094084 0 0)">
<g style="" paint-order="stroke">
		<g transform="matrix(1 0 0 1 17.549999999999997 -17.54562504863057)">
<path style="stroke: none; stroke-width: 1; stroke-dasharray: none; stroke-linecap: butt; stroke-dashoffset: 0; stroke-linejoin: miter; stroke-miterlimit: 4; fill: rgb(0,150,136); fill-rule: nonzero; opacity: 1;" paint-order="stroke" transform=" translate(-142.54937505571735, -107.44937494429591)" d="M 218.45 31.55 C 260.51 73.61 260.52 141.83 218.45 183.9 C 200.17 202.18 176.95999999999998 212.51 153.08999999999997 214.9 C 153.23999999999998 214.86 153.39999999999998 214.82 153.55999999999997 214.77 C 169.16999999999996 210.51000000000002 183.95 202.27 196.21999999999997 190 C 233.83999999999997 152.38 233.83999999999997 91.4 196.21999999999997 53.78 C 158.59999999999997 16.159999999999997 97.61 16.16 59.99 53.78 C 47.7 66.07 39.46 80.87 35.21 96.52 C 35.17 96.64999999999999 35.13 96.77 35.1 96.92 C 37.49 73.05 47.82 49.84 66.1 31.560000000000002 C 108.17 -10.52 176.38 -10.52 218.45 31.55 z" stroke-linecap="round"></path>
</g>
		<g transform="matrix(1 0 0 1 -3.3193750557173445 3.3156250557041034)">
<path style="stroke: none; stroke-width: 1; stroke-dasharray: none; stroke-linecap: butt; stroke-dashoffset: 0; stroke-linejoin: miter; stroke-miterlimit: 4; fill: rgb(0,0,0); fill-rule: nonzero; opacity: 1;" paint-order="stroke" transform=" translate(-121.68, -128.31062504863058)" d="M 243.24 155.96 C 243.28 155.88 243.33 155.81 243.36 155.72 C 238.21 177.03 227.32000000000002 197.22 210.69 213.84 C 162.49 262.04 84.34 262.04 36.150000000000006 213.85 C -12.049999999999997 165.64999999999998 -12.049999999999997 87.5 36.150000000000006 39.29999999999998 C 52.78 22.67 72.97 11.79 94.28 6.63 C 94.19 6.66 94.12 6.71 94.04 6.75 C 94.01 6.76 94 6.77 93.99 6.77 C 82.16 12.19 71.06 19.76 61.32 29.5 C 17.369999999999997 73.45 17.369999999999997 144.72 61.33 188.67 C 105.28999999999999 232.61999999999998 176.54 232.62 220.49 188.67 C 230.22 178.94 237.81 167.85 243.23000000000002 156.01999999999998 C 243.24 156 243.24 155.98 243.24 155.96 z" stroke-linecap="round"></path>
</g>
		<g transform="matrix(1 0 0 1 3.3224998933924184 -3.326249992926492)">
<path style="stroke: none; stroke-width: 1; stroke-dasharray: none; stroke-linecap: butt; stroke-dashoffset: 0; stroke-linejoin: miter; stroke-miterlimit: 4; fill: rgb(0,0,0); fill-rule: nonzero; opacity: 1;" paint-order="stroke" transform=" translate(-128.32187494910977, -121.66874999999999)" d="M 220.49 188.67 C 230.22 178.94 237.81 167.85 243.23000000000002 156.01999999999998 C 237.62 172.83999999999997 228.13000000000002 188.64 214.73000000000002 202.04 C 168.68 248.08999999999997 94.01000000000002 248.08999999999997 47.96000000000001 202.04 C 1.9 155.98 1.9 81.32 47.95 35.26 C 61.34 21.869999999999997 77.15 12.369999999999997 93.99000000000001 6.759999999999998 C 82.16 12.19 71.06 19.76 61.32 29.5 C 17.369999999999997 73.45 17.369999999999997 144.72 61.33 188.67 C 105.28999999999999 232.61999999999998 176.54 232.63 220.49 188.67 z" stroke-linecap="round"></path>
</g>
		<g transform="matrix(1 0 0 1 11.354374944282611 -11.358125051792499)">
<path style="stroke: none; stroke-width: 1; stroke-dasharray: none; stroke-linecap: butt; stroke-dashoffset: 0; stroke-linejoin: miter; stroke-miterlimit: 4; fill: rgb(0,150,136); fill-rule: nonzero; opacity: 1;" paint-order="stroke" transform=" translate(-136.35374999999996, -113.63687494113398)" d="M 207.64 42.36 C 247.45 82.17 247.45 146.70999999999998 207.64 186.51999999999998 C 192.32999999999998 201.82999999999998 173.36999999999998 211.24999999999997 153.56 214.76999999999998 C 169.17000000000002 210.51 183.95 202.26999999999998 196.22 189.99999999999997 C 233.84 152.37999999999997 233.84 91.39999999999998 196.22 53.77999999999997 C 158.6 16.159999999999968 97.61 16.16 59.99 53.78 C 47.7 66.07 39.46 80.87 35.21 96.52 C 38.72 76.67999999999999 48.15 57.69 63.480000000000004 42.37 C 103.29 2.55 167.83 2.55 207.64 42.36 z" stroke-linecap="round"></path>
</g>
</g>
</g>
</g>
</g>
<g transform="matrix(1.9211538461538462 0 0 1.9211538461538462 683.7839340265216 478.87419962585)" id="text-logo">
<g style="" paint-order="stroke">
		<g transform="matrix(1 0 0 1 0 0)" id="text-logo-path-0">
<path style="stroke: none; stroke-width: 0; stroke-dasharray: none; stroke-linecap: butt; stroke-dashoffset: 0; stroke-linejoin: miter; stroke-miterlimit: 4; fill: rgb(0,0,0); fill-rule: nonzero; opacity: 1;" paint-order="stroke" transform=" translate(-128.795, 43.575)" d="M 9.46 -87.15 L 9.46 0 L 29.38 0 L 29.38 -32.99 L 66.73 -32.99 L 66.73 0 L 86.65 0 L 86.65 -87.15 L 66.73 -87.15 L 66.73 -51.67 L 29.38 -51.67 L 29.38 -87.15 Z M 104.08 -87.15 L 104.08 0 L 168.58 0 L 168.58 -18.68 L 124.01 -18.68 L 124.01 -34.24 L 159.86 -34.24 L 159.86 -51.67 L 124.01 -51.67 L 124.01 -68.48 L 168.58 -68.48 L 168.58 -87.15 Z M 183.64 -87.15 L 183.64 0 L 248.13 0 L 248.13 -18.68 L 203.56 -18.68 L 203.56 -87.15 Z" stroke-linecap="round"></path>
</g>
</g>
</g>
<g transform="matrix(1.9211538461538462 0 0 1.9211538461538462 1006.8883560514275 480.0587724881024)" id="tagline-6430dfa2-44d6-4d58-a1ba-0d8a83c9e713-logo">
<g style="" paint-order="stroke">
		<g transform="matrix(1 0 0 1 0 0)" id="tagline-6430dfa2-44d6-4d58-a1ba-0d8a83c9e713-logo-path-0">
<path style="stroke: none; stroke-width: 0; stroke-dasharray: none; stroke-linecap: butt; stroke-dashoffset: 0; stroke-linejoin: miter; stroke-miterlimit: 4; fill: rgb(0,150,136); fill-rule: nonzero; opacity: 1;" paint-order="stroke" transform=" translate(-43.83500000000001, 43.215)" d="M 8.77 0 L 28.52 0 L 28.52 -18.89 L 45.32 -18.89 C 64.33 -18.89 78.9 -32.84 78.9 -52.85 C 78.9 -71.86 65.07 -86.43 45.32 -86.43 L 8.77 -86.43 Z M 28.52 -37.41 L 28.52 -67.91 L 42.6 -67.91 C 51.37 -67.91 57.91 -61.74 57.91 -52.72 C 57.91 -43.83 51.86 -37.41 42.6 -37.41 Z" stroke-linecap="round"></path>
</g>
</g>
</g>
</symbol>
  
  <symbol id="logo" viewBox="0 0 106 31"><title>Slides Framework</title><path d="M17.413 14.04c-.56-5.84-5.6-7-8.52-7-4.6 0-8.6 2.92-8.6 7.52 0 3 2.4 4.88 5.28 5.8 4.24 1.64 5.88 1.84 5.88 3.36 0 1.08-1.2 1.72-2.32 1.72-.28 0-2.24 0-2.52-2.04h-6.6c.6 5.84 5.68 7.36 9.04 7.36 4.92 0 9.04-2.88 9.04-7.76 0-4.8-4-5.92-7.76-6.96-1.76-.52-3.4-1.2-3.4-2.2 0-.6.48-1.48 1.88-1.48 1.96 0 2.04 1.2 2.08 1.68h6.52zm2.222 15.96h6.64v-29.6h-6.64v29.6zm9.662-24.56h6.64v-5.04h-6.64v5.04zm0 24.56h6.64v-22.2h-6.64v22.2zm32.782-29.6h-6.64v9.28c-.72-.72-2.6-2.64-6.52-2.64-5.64 0-11 4.28-11 11.8 0 6.68 4.4 11.88 11.12 11.88 4.48 0 6.08-2.2 6.72-3.12v2.4h6.32v-29.6zm-17.52 18.4c0-2.56 1.8-5.56 5.64-5.56 1.56 0 2.96.56 3.96 1.56 1 .96 1.64 2.32 1.64 3.92.08 1.64-.52 3.08-1.56 4.12s-2.52 1.68-4.12 1.68c-3.12 0-5.56-2.28-5.56-5.68v-.04zm42.502 2.4c.52-4.08-.32-7.64-3.12-10.64-2.08-2.2-5-3.52-8.4-3.52-6.76 0-11.64 5.72-11.64 11.92 0 6.6 5.4 11.76 11.76 11.76 2.28 0 4.48-.68 6.32-2 1.88-1.28 3.44-3.2 4.52-5.68h-6.8c-.8 1.16-1.92 2.08-4.04 2.08-2.6 0-4.84-1.56-5.12-3.92h16.52zm-16.44-5.04c.16-1.04 1.52-3.52 4.96-3.52s4.8 2.48 4.96 3.52h-9.92zm34.502-2.12c-.56-5.84-5.6-7-8.52-7-4.6 0-8.6 2.92-8.6 7.52 0 3 2.4 4.88 5.28 5.8 4.24 1.64 5.88 1.84 5.88 3.36 0 1.08-1.2 1.72-2.32 1.72-.28 0-2.24 0-2.52-2.04h-6.6c.6 5.84 5.68 7.36 9.04 7.36 4.92 0 9.04-2.88 9.04-7.76 0-4.8-4-5.92-7.76-6.96-1.76-.52-3.4-1.2-3.4-2.2 0-.6.48-1.48 1.88-1.48 1.96 0 2.04 1.2 2.08 1.68h6.52z"></path></symbol>
  
  <symbol id="close" viewBox="0 0 30 30"><path d="M15 0c-8.3 0-15 6.7-15 15s6.7 15 15 15 15-6.7 15-15-6.7-15-15-15zm5.7 19.3c.4.4.4 1 0 1.4-.2.2-.4.3-.7.3s-.5-.1-.7-.3l-4.3-4.3-4.3 4.3c-.2.2-.4.3-.7.3s-.5-.1-.7-.3c-.4-.4-.4-1 0-1.4l4.3-4.3-4.3-4.3c-.4-.4-.4-1 0-1.4s1-.4 1.4 0l4.3 4.3 4.3-4.3c.4-.4 1-.4 1.4 0s.4 1 0 1.4l-4.3 4.3 4.3 4.3z"></path></symbol>

  <symbol id="arrow-left" viewBox="0 0 29 56"><path d="M28.7.3c.4.4.4 1 0 1.4l-26.3 26.3 26.3 26.3c.4.4.4 1 0 1.4-.4.4-1 .4-1.4 0l-27-27c-.4-.4-.4-1 0-1.4l27-27c.3-.3 1-.4 1.4 0z"></path></symbol>
  
  <symbol id="arrow-right" viewBox="0 0 29 56"><path d="M.3 55.7c-.4-.4-.4-1 0-1.4l26.3-26.3-26.3-26.3c-.4-.4-.4-1 0-1.4.4-.4 1-.4 1.4 0l27 27c.4.4.4 1 0 1.4l-27 27c-.3.3-1 .4-1.4 0z"></path></symbol>

  <symbol id="back" viewBox="0 0 20 20"><path d="M2.3 10.7l5 5c.4.4 1 .4 1.4 0s.4-1 0-1.4l-3.3-3.3h11.6c.6 0 1-.4 1-1s-.4-1-1-1h-11.6l3.3-3.3c.4-.4.4-1 0-1.4-.2-.2-.4-.3-.7-.3s-.5.1-.7.3l-5 5c-.2.2-.3.5-.3.7 0 .2.1.5.3.7z"></path></symbol>
  
  <symbol id="menu" viewBox="0 0 18 18"><path d="M16 5h-14c-.6 0-1-.4-1-1 0-.5.4-1 1-1h14c.5 0 1 .4 1 1s-.4 1-1 1zm-14 5h14c.5 0 1-.4 1-1 0-.5-.4-1-1-1h-14c-.6 0-1 .4-1 1s.4 1 1 1zm14 3h-14c-.5 0-1 .4-1 1 0 .5.4 1 1 1h14c.5 0 1-.4 1-1s-.4-1-1-1z"></path></symbol>
  
  <symbol id="share" viewBox="0 0 18 18"><path d="M16 8c-.6 0-1 .4-1 1v6h-12v-6c0-.6-.4-1-1-1s-1 .4-1 1v6c0 1.1.9 2 2 2h12c1.1 0 2-.9 2-2v-6c0-.6-.4-1-1-1zm-2.3-2.3c.4-.4.4-1 0-1.4l-4-4c-.4-.4-1-.4-1.4 0l-4 4c-.4.4-.4 1 0 1.4s1 .4 1.4 0l2.3-2.3v7.6c0 .6.4 1 1 1s1-.4 1-1v-7.6l2.3 2.3c.4.4 1 .4 1.4 0z"></path></symbol>

  <symbol id="arrow-down" viewBox="0 0 24 24"><path d="M12 18c-.2 0-.5-.1-.7-.3l-11-10c-.4-.4-.4-1-.1-1.4.4-.4 1-.4 1.4-.1l10.4 9.4 10.3-9.4c.4-.4 1-.3 1.4.1.4.4.3 1-.1 1.4l-11 10c-.1.2-.4.3-.6.3z"></path></symbol>
  
  <symbol id="arrow-up" viewBox="0 0 24 24"><path d="M11.9 5.9c.2 0 .5.1.7.3l11 10c.4.4.4 1 .1 1.4-.4.4-1 .4-1.4.1l-10.4-9.4-10.3 9.4c-.4.4-1 .3-1.4-.1-.4-.4-.3-1 .1-1.4l11-10c.1-.2.4-.3.6-.3z"></path></symbol>
  
  <symbol id="arrow-top" viewBox="0 0 18 18"><path d="M15.7 7.3l-6-6c-.4-.4-1-.4-1.4 0l-6 6c-.4.4-.4 1 0 1.4.4.4 1 .4 1.4 0l4.3-4.3v11.6c0 .6.4 1 1 1s1-.4 1-1v-11.6l4.3 4.3c.2.2.4.3.7.3s.5-.1.7-.3c.4-.4.4-1 0-1.4z"></path></symbol>
  
  <symbol id="play" viewBox="0 0 30 30"><path d="M7 30v-30l22 15z"></path></symbol> 
  
  <symbol id="chat" viewBox="0 0 18 18"><path d="M5,17c-0.2,0-0.3,0-0.4-0.1C4.2,16.7,4,16.4,4,16v-2H2c-1.1,0-2-0.9-2-2V3c0-1.1,0.9-2,2-2h14c1.1,0,2,0.9,2,2v9 c0,1.1-0.9,2-2,2H9.3l-3.7,2.8C5.4,16.9,5.2,17,5,17z M2,12h3.5C5.8,12,6,12.2,6,12.5V14l2.4-1.8C8.6,12.1,8.8,12,9,12h7V3H2V12z M13,7H5C4.4,7,4,6.6,4,6s0.4-1,1-1h8c0.6,0,1,0.4,1,1S13.6,7,13,7z M13,10H5c-0.6,0-1-0.4-1-1s0.4-1,1-1h8c0.6,0,1,0.4,1,1 S13.6,10,13,10z"></path></symbol>

  <symbol id="mail" viewBox="0 0 18 18"><path d="M16 2h-14c-1.1 0-2 .9-2 2v10c0 1.1.9 2 2 2h14c1.1 0 2-.9 2-2v-10c0-1.1-.9-2-2-2zm0 2v.5l-7 4.3-7-4.4v-.4h14zm-14 10v-7.2l6.5 4c.1.1.3.2.5.2s.4-.1.5-.2l6.5-4v7.2h-14z"></path></symbol>

  <symbol id="sound-on" viewBox="0 0 18 18"><path d="M8.5,0.1C8.1-0.1,7.7,0,7.4,0.2L3.7,3H2C0.9,3,0,3.9,0,5v6c0,1.1,0.9,2,2,2h1.7l3.7,2.8C7.6,15.9,7.8,16,8,16 c0.2,0,0.3,0,0.4-0.1C8.8,15.7,9,15.4,9,15V1C9,0.6,8.8,0.3,8.5,0.1z M7,13l-2.4-1.8C4.4,11.1,4.2,11,4,11l-2,0l0-6h2 c0.2,0,0.4-0.1,0.6-0.2L7,3V13z M11.7,9.9l0.7,1.9C13.9,11.2,15,9.7,15,8c0-1.7-1.1-3.2-2.7-3.8l-0.7,1.9C12.5,6.4,13,7.2,13,8C13,8.9,12.5,9.6,11.7,9.9z M12.2,1.1l-0.3,2C14.3,3.5,16,5.6,16,8s-1.8,4.5-4.2,4.9l0.3,2C15.6,14.3,18,11.4,18,8C18,4.6,15.6,1.7,12.2,1.1z"></path></symbol>
  
  <symbol id="sound-off" viewBox="0 0 18 18"><path d="M15.9,8l1.8-1.8c0.4-0.4,0.4-1,0-1.4s-1-0.4-1.4,0l-1.8,1.8l-1.8-1.8c-0.4-0.4-1-0.4-1.4,0s-0.4,1,0,1.4L13.1,8l-1.8,1.8 c-0.4,0.4-0.4,1,0,1.4c0.2,0.2,0.5,0.3,0.7,0.3s0.5-0.1,0.7-0.3l1.8-1.8l1.8,1.8c0.2,0.2,0.5,0.3,0.7,0.3s0.5-0.1,0.7-0.3 c0.4-0.4,0.4-1,0-1.4L15.9,8z M8.5,0.1C8.1-0.1,7.7,0,7.4,0.2L3.7,3H2C0.9,3,0,3.9,0,5v6c0,1.1,0.9,2,2,2h1.7l3.7,2.8C7.6,15.9,7.8,16,8,16 c0.2,0,0.3,0,0.4-0.1C8.8,15.7,9,15.4,9,15V1C9,0.6,8.8,0.3,8.5,0.1z M7,13l-2.4-1.8C4.4,11.1,4.2,11,4,11l-2,0l0-6h2 c0.2,0,0.4-0.1,0.6-0.2L7,3V13z"></path></symbol>

  <symbol id="heart" viewBox="0 0 24 24"><path d="M17.4304 3C15.2848 3 13.4313 4.1925 12.5 5.943C11.5687 4.1925 9.71065 3 7.56957 3C4.49261 3 2 5.457 2 8.4855C2 11.514 3.90826 14.2815 6.37348 16.554C8.92543 18.903 12.5 21 12.5 21C12.5 21 16.0426 18.8625 18.6265 16.554C21.3839 14.088 23 11.514 23 8.4855C23 5.457 20.5074 3 17.4304 3Z"></path></symbol>

  <symbol id="repost">  <path d="M4.72783 15.2138C6.23438 15.2138 7.45567 13.9989 7.45567 12.5002C7.45567 11.0015 6.23438 9.78662 4.72783 9.78662C3.22129 9.78662 2 11.0015 2 12.5002C2 13.9989 3.22129 15.2138 4.72783 15.2138Z"></path><path d="M19.2718 21.9999C20.7783 21.9999 21.9996 20.785 21.9996 19.2863C21.9996 17.7877 20.7783 16.5728 19.2718 16.5728C17.7652 16.5728 16.5439 17.7877 16.5439 19.2863C16.5439 20.785 17.7652 21.9999 19.2718 21.9999Z"></path><path d="M19.2718 8.42717C20.7783 8.42717 21.9996 7.21225 21.9996 5.71358C21.9996 4.21491 20.7783 3 19.2718 3C17.7652 3 16.5439 4.21491 16.5439 5.71358C16.5439 7.21225 17.7652 8.42717 19.2718 8.42717Z"></path><path d="M6.90356 11.8778L17.142 6.52295" fill="none" stroke="" stroke-miterlimit="10"></path><path d="M6.9231 13.0869L17.1616 18.4462" fill="none" stroke="" stroke-miterlimit="10"></path></symbol> 

  <symbol id="star" viewBox="0 0 24 24"><path d="M11.5516 3.90849C11.735 3.53687 12.265 3.53687 12.4484 3.90849L14.5287 8.1237C14.6015 8.27127 14.7423 8.37356 14.9052 8.39722L19.5569 9.07316C19.967 9.13276 20.1308 9.63674 19.834 9.92601L16.468 13.2071C16.3501 13.322 16.2964 13.4875 16.3242 13.6497L17.1188 18.2826C17.1889 18.6911 16.7601 19.0026 16.3933 18.8097L12.2327 16.6223C12.087 16.5457 11.913 16.5457 11.7673 16.6223L7.60667 18.8097C7.23985 19.0026 6.81114 18.6911 6.88119 18.2826L7.67581 13.6497C7.70363 13.4875 7.64985 13.322 7.53201 13.2071L4.16597 9.92601C3.86921 9.63674 4.03296 9.13276 4.44307 9.07316L9.09483 8.39722C9.25769 8.37356 9.39847 8.27127 9.4713 8.1237L11.5516 3.90849Z"></path></symbol>

  <symbol id="check" viewBox="0 0 24 24" fill="none"><path d="M3 12L9 18L21 6" stroke-width="2" stroke-linecap="round" stroke-linejoin="round"></path></symbol>

  <!-- social -->
  <symbol id="apple" viewBox="-1 1 24 24"><path d="M17.6 13.8c0-3 2.5-4.5 2.6-4.6-1.4-2.1-3.6-2.3-4.4-2.4-1.9-.2-3.6 1.1-4.6 1.1-.9 0-2.4-1.1-4-1-2 0-3.9 1.2-5 3-2.1 3.7-.5 9.1 1.5 12.1 1 1.5 2.2 3.1 3.8 3 1.5-.1 2.1-1 3.9-1s2.4 1 4 1 2.7-1.5 3.7-2.9c1.2-1.7 1.6-3.3 1.7-3.4-.1-.1-3.2-1.3-3.2-4.9zm-3.1-9c.8-1 1.4-2.4 1.2-3.8-1.2 0-2.7.8-3.5 1.8-.8.9-1.5 2.3-1.3 3.7 1.4.1 2.8-.7 3.6-1.7z"></path></symbol>

  <symbol id="dribbble" viewBox="0 0 24 24"><path d="M12 0c-6.7 0-12 5.3-12 12s5.3 12 12 12 12-5.3 12-12-5.3-12-12-12zm7.9 5.7c1.3 1.7 2.1 3.9 2.3 6.1-.4-.1-2.4-.4-4.7-.4-.8 0-1.5 0-2.3.1 0-.1-.1-.3-.3-.5l-.7-1.5c3.7-1.4 5.3-3.4 5.7-3.8zm-7.9-3.8c2.5 0 4.9.9 6.7 2.5-.3.4-1.9 2.3-5.2 3.6-1.6-2.9-3.3-5.3-3.7-5.9.6-.1 1.4-.2 2.2-.2zm-4.4 1c.4.6 2.1 3 3.7 5.8-4.4 1.2-8.2 1.2-9.2 1.2h-.1c.8-3.1 2.9-5.6 5.6-7zm-5.7 9.1v-.3h.3c1.2 0 5.6-.1 10.1-1.5l.8 1.6c-.1 0-.3 0-.4.1-5.1 1.6-7.9 6-8.3 6.7-1.6-1.7-2.5-4.1-2.5-6.6zm10.1 10.1c-2.3 0-4.4-.8-6.1-2.1.3-.5 2.4-4.4 7.9-6.3 1.3 3.6 2 6.7 2.1 7.6-1.2.6-2.6.8-3.9.8zm5.7-1.8c-.1-.8-.7-3.6-2-7.1.7-.1 1.3-.1 2-.1 2.1 0 3.7.4 4.1.5-.3 2.8-1.8 5.2-4.1 6.7z"></path></symbol>

  <symbol id="facebook" viewBox="0 0 24 24"><path d="M24 1.3v21.3c0 .7-.6 1.3-1.3 1.3h-6.1v-9.3h3.1l.5-3.6h-3.6v-2.2c0-1.1.3-1.8 1.8-1.8h1.9v-3.2c-.3 0-1.5-.1-2.8-.1-2.8 0-4.7 1.7-4.7 4.8v2.7h-3.1v3.6h3.1v9.2h-11.5c-.7 0-1.3-.6-1.3-1.3v-21.4c0-.7.6-1.3 1.3-1.3h21.3c.8 0 1.4.6 1.4 1.3z"></path></symbol>

  <symbol id="facebook2" viewBox="0 0 512 512"><path d="M288 176v-64c0-17.664 14.336-32 32-32h32v-80h-64c-53.024 0-96 42.976-96 96v80h-64v80h64v256h96v-256h64l32-80h-96z"></path></symbol>
   
  <symbol id="fb-like" viewBox="0 0 20 20"><path d="M0 8v12h5v-12h-5zm2.5 10.8c-.4 0-.8-.3-.8-.8 0-.4.3-.8.8-.8s.8.3.8.8c0 .4-.4.8-.8.8zm3.5-.8h9.5c1.1 0 1.7-1 1.7-1.7 0-.3-.4-1-.4-1 1.4-.3 1.7-1.2 1.7-1.7-.1-.5-.3-.9-.5-1 1-.4 1.5-1.1 1.4-1.9-.1-.8-1-1.5-1-1.5 1-.6.9-1.5.9-1.5-.3-1.3-1.5-1.7-1.7-1.7h-5.6s.3-.5.3-2.4-1.3-3.6-2.6-3.6c0 0-.7.1-1 .3v3.5l-2.7 4.4v9.8z"></path></symbol>
  
  <symbol id="instagram" viewBox="0 0 20 20"><circle cx="10" cy="10" r="3.3"></circle><path d="M13,0H7C2.2,0,0,2.2,0,7v6c0,4.8,2.1,7,7,7h6c4.8,0,7-2.2,7-7V7C20,2.2,17.9,0,13,0z M10,15.1c-2.8,0-5.1-2.3-5.1-5.1 S7.2,4.9,10,4.9s5.1,2.3,5.1,5.1S12.8,15.1,10,15.1z M15.3,5.9c-0.7,0-1.2-0.5-1.2-1.2c0-0.7,0.5-1.2,1.2-1.2s1.2,0.5,1.2,1.2 C16.5,5.3,16,5.9,15.3,5.9z"></path></symbol>

  <symbol id="behance" viewBox="0 0 511.958 511.958"><path d="M210.624 240.619c10.624-5.344 18.656-11.296 24.16-17.728 9.792-11.584 14.624-26.944 14.624-45.984 0-18.528-4.832-34.368-14.496-47.648-16.128-21.632-43.424-32.704-82.016-33.28h-152.896v312.096h142.56c16.064 0 30.944-1.376 44.704-4.192 13.76-2.848 25.664-8.064 35.744-15.68 8.96-6.624 16.448-14.848 22.4-24.544 9.408-14.656 14.112-31.264 14.112-49.76 0-17.92-4.128-33.184-12.32-45.728-8.288-12.544-20.448-21.728-36.576-27.552zm-147.552-90.432h68.864c15.136 0 27.616 1.632 37.408 4.864 11.328 4.704 16.992 14.272 16.992 28.864 0 13.088-4.32 22.24-12.864 27.392-8.608 5.152-19.776 7.744-33.472 7.744h-76.928v-68.864zm108.896 198.24c-7.616 3.68-18.336 5.504-32.064 5.504h-76.832v-83.232h77.888c13.568.096 24.128 1.888 31.68 5.248 13.44 6.08 20.128 17.216 20.128 33.504 0 19.2-6.912 32.128-20.8 38.976zM327.168 110.539h135.584v38.848h-135.584zM509.856 263.851c-2.816-18.08-9.024-33.984-18.688-47.712-10.592-15.552-24.032-26.944-40.384-34.144-16.288-7.232-34.624-10.848-55.04-10.816-34.272 0-62.112 10.72-83.648 32-21.472 21.344-32.224 52.032-32.224 92.032 0 42.656 11.872 73.472 35.744 92.384 23.776 18.944 51.232 28.384 82.4 28.384 37.728 0 67.072-11.232 88.032-33.632 13.408-14.144 20.992-28.064 22.656-41.728h-62.464c-3.616 6.752-7.808 12.032-12.608 15.872-8.704 7.04-20.032 10.56-33.92 10.56-13.216 0-24.416-2.912-33.76-8.704-15.424-9.28-23.488-25.536-24.512-48.672h170.464c.256-19.936-.384-35.264-2.048-45.824zm-166.88 5.984c2.24-15.008 7.68-26.912 16.32-35.712 8.64-8.768 20.864-13.184 36.512-13.216 14.432 0 26.496 4.128 36.32 12.416 9.696 8.352 15.168 20.48 16.288 36.512h-105.44z"></path></symbol>
  
  <symbol id="linkedin" viewBox="0 0 24 24"><path d="M5.9 21.9h-4.7v-14.2h4.7v14.2zm-2.3-16.1c-1.6 0-2.6-1.1-2.6-2.5s1-2.5 2.7-2.5c1.6 0 2.6 1 2.6 2.5-.1 1.4-1.2 2.5-2.7 2.5zm19.2 16.1h-4.7v-7.6c0-2-.7-3.3-2.3-3.3-1.3 0-2.1.9-2.5 1.7-.1.3-.1.8-.1 1.2v7.9h-4.7v-14.1h4.7v2c.7-.9 1.7-2.3 4.3-2.3 3.1 0 5.5 2.1 5.5 6.4v8.2h-.2z"></path></symbol>

  <symbol id="medium" viewBox="0 0 130.8 104"><path d="M15.5 21.2c.2-1.6-.5-3.2-1.7-4.3l-12.1-14.7v-2.2h38l29.3 64.4 25.8-64.4h36.2v2.2l-10.5 10c-.9.7-1.3 1.8-1.2 2.9v73.7c0 1.1.3 2.2 1.2 2.9l10.2 10v2.2h-51.3v-2.2l10.6-10.2c1-1 1-1.3 1-2.9v-59.6l-29.4 74.7h-4l-34.2-74.7v50.3c0 2.2.4 4.2 1.9 5.7l13.7 16.8v2.2h-39v-2.2l13.8-16.7c1.5-1.5 1.8-3.3 1.8-5.7l-.1-58.2z"></path></symbol>
  
  <symbol id="pinterest" viewBox="0 0 24 24"><path d="M5.9 13.9c1.2-2-.4-2.5-.6-4-1-6.1 7.1-10.2 11.4-6 2.9 2.9 1 12-3.7 11-4.6-.9 2.2-8.1-1.4-9.5-3-1.1-4.6 3.6-3.2 5.9-.8 4-2.5 7.7-1.8 12.7 2.3-1.7 3.1-4.8 3.7-8.1 1.2.7 1.8 1.4 3.3 1.5 5.5.4 8.6-5.4 7.8-10.7-.7-4.7-5.5-7.1-10.6-6.6-4.1.4-8.1 3.7-8.3 8.3-.1 2.8.7 4.9 3.4 5.5z"></path></symbol>
  
  <symbol id="stumbleupon" viewBox="0 0 24 24"><path d="M13.3 9.6l1.6.8 2.5-.8v-1.4c0-3-2.4-5.4-5.4-5.4s-5.4 2.4-5.4 5.4v7.5c0 .7-.6 1.3-1.3 1.3s-1.3-.6-1.3-1.3v-3.2h-4v3.2c0 3 2.4 5.4 5.4 5.4s5.4-2.4 5.4-5.4v-7.5c0-.7.6-1.3 1.3-1.3s1.3.6 1.3 1.3l-.1 1.4zm6.6 2.9v3.2c0 .7-.6 1.3-1.3 1.3s-1.3-.6-1.3-1.3v-3.2l-2.5.8-1.6-.8v3.2c0 3 2.4 5.4 5.4 5.4s5.4-2.4 5.4-5.4v-3.2h-4.1z"></path></symbol>
  
  <symbol id="twitter" viewBox="0 1 24 23"><path d="M21.5 7.6v.6c0 6.6-5 14.1-14 14.1-2.8 0-5.4-.8-7.6-2.2l1.2.1c2.3 0 4.4-.8 6.1-2.1-2.2 0-4-1.5-4.6-3.4.3.1.6.1.9.1.5 0 .9-.1 1.3-.2-2.1-.6-3.8-2.6-3.8-5 .7.4 1.4.6 2.2.6-1.3-.9-2.2-2.4-2.2-4.1 0-.9.2-1.8.7-2.5 2.4 3 6.1 5 10.2 5.2-.1-.4-.1-.7-.1-1.1 0-2.7 2.2-5 4.9-5 1.4 0 2.7.6 3.6 1.6 1-.3 2.1-.7 3-1.3-.4 1.2-1.1 2.1-2.2 2.7 1-.1 1.9-.4 2.8-.8-.6 1.1-1.4 2-2.4 2.7z"></path></symbol>
  
  <symbol id="tumblr" viewBox="0 0 23 23"><path d="M12.573 4.94v-4.94h-3.188c-.072.183-.11.4-.11.622-.034.107-.072.184-.072.293-.328 1.829-1.28 3.11-2.892 3.807-.476.218-.914.253-1.39.218v3.987h2.342c.039 5.603.039 8.493.039 8.64v.332c.294 2.449 1.573 3.914 3.843 4.463.914.257 1.901.366 2.892.366 1.279-.036 2.525-.256 3.771-.659v-4.685c-.731.22-1.395.402-1.977.583-1.135.333-2.087.113-2.857-.619-.073-.11-.183-.257-.221-.403-.106-.586-.178-1.206-.178-1.795v-6.222h5.083v-3.988h-5.085z"></path></symbol>

  <symbol id="xing" viewBox="0 0 24 24"><path d="M3.647 4.74c-.208 0-.384.073-.472.216-.091.148-.077.338.02.531l2.34 4.051v.02l-3.678 6.49c-.096.191-.091.383 0 .531.088.142.244.236.452.236h3.461c.518 0 .767-.349.944-.669l3.737-6.608-2.38-4.15c-.172-.307-.433-.649-.964-.649h-3.46zm14.542-4.74c-.517 0-.741.326-.927.659l-7.702 13.658 4.918 9.023c.172.307.437.659.967.659h3.457c.208 0 .371-.079.459-.221.092-.148.09-.343-.007-.535l-4.88-8.915v-.023l7.664-13.551c.096-.191.098-.386.007-.534-.088-.142-.252-.221-.46-.221h-3.496z"></path></symbol>

  <symbol id="whatsapp" viewBox="0 0 512 512"><path d="M256.064 0h-.128c-141.152 0-255.936 114.816-255.936 256 0 56 18.048 107.904 48.736 150.048l-31.904 95.104 98.4-31.456c40.48 26.816 88.768 42.304 140.832 42.304 141.152 0 255.936-114.848 255.936-256s-114.784-256-255.936-256zm148.96 361.504c-6.176 17.44-30.688 31.904-50.24 36.128-13.376 2.848-30.848 5.12-89.664-19.264-75.232-31.168-123.68-107.616-127.456-112.576-3.616-4.96-30.4-40.48-30.4-77.216s18.656-54.624 26.176-62.304c6.176-6.304 16.384-9.184 26.176-9.184 3.168 0 6.016.16 8.576.288 7.52.32 11.296.768 16.256 12.64 6.176 14.88 21.216 51.616 23.008 55.392 1.824 3.776 3.648 8.896 1.088 13.856-2.4 5.12-4.512 7.392-8.288 11.744-3.776 4.352-7.36 7.68-11.136 12.352-3.456 4.064-7.36 8.416-3.008 15.936 4.352 7.36 19.392 31.904 41.536 51.616 28.576 25.44 51.744 33.568 60.032 37.024 6.176 2.56 13.536 1.952 18.048-2.848 5.728-6.176 12.8-16.416 20-26.496 5.12-7.232 11.584-8.128 18.368-5.568 6.912 2.4 43.488 20.48 51.008 24.224 7.52 3.776 12.48 5.568 14.304 8.736 1.792 3.168 1.792 18.048-4.384 35.52z"></path></symbol>
  
  <symbol id="youtube" viewBox="0 0 24 24"><path d="M23.6 6.3c-.3-1.2-1.4-2.2-2.6-2.3-3-.3-6-.3-9-.3s-6 0-9 .3c-1.2.1-2.3 1.1-2.6 2.3-.4 1.8-.4 3.8-.4 5.7 0 1.9 0 3.9.4 5.7.3 1.2 1.4 2.2 2.6 2.3 3 .3 6 .3 9 .3s6 0 9-.3c1.3-.1 2.3-1.1 2.6-2.4.4-1.7.4-3.7.4-5.6 0-1.9 0-3.9-.4-5.7zm-14.1 9v-6.6l6.5 3.3-6.5 3.3z"></path></symbol>

  <symbol id="pinterest-round" viewBox="0 0 18 18"><path fill-rule="evenodd" clip-rule="evenodd" d="M9 0C4.02931 0 0 4.02825 0 9C0 12.8123 2.37206 16.0694 5.71954 17.3809C5.64082 16.6693 5.57062 15.5769 5.75145 14.7983C5.9142 14.0962 6.80664 10.3254 6.80664 10.3254C6.80664 10.3254 6.53753 9.78608 6.53753 8.98936C6.53753 7.73738 7.26191 6.80345 8.16606 6.80345C8.93299 6.80345 9.30422 7.37998 9.30422 8.07139C9.30422 8.84364 8.81279 9.99775 8.55856 11.0678C8.34689 11.9645 9.00851 12.6942 9.89138 12.6942C11.4912 12.6942 12.7208 11.0072 12.7208 8.57239C12.7208 6.41733 11.1731 4.91112 8.96171 4.91112C6.40137 4.91112 4.89836 6.83217 4.89836 8.81704C4.89836 9.59036 5.19513 10.42 5.56743 10.8711C5.64082 10.9604 5.65146 11.0381 5.63019 11.1295C5.56211 11.4135 5.41 12.0252 5.38022 12.1496C5.34086 12.3145 5.24938 12.3496 5.07812 12.2709C3.95485 11.7475 3.25281 10.1031 3.25281 8.78407C3.25281 5.94504 5.31533 3.33684 9.19891 3.33684C12.3209 3.33684 14.7472 5.56211 14.7472 8.53516C14.7472 11.6369 12.791 14.1334 10.0775 14.1334C9.16488 14.1334 8.30753 13.659 8.01395 13.0995C8.01395 13.0995 7.56294 14.8174 7.45337 15.2386C7.25021 16.0204 6.70134 17.0001 6.33542 17.5979C7.17681 17.8596 8.07139 18 9 18C13.9707 18 18 13.9707 18 9C18 4.02825 13.9707 0 9 0Z"></path></symbol>  

  <symbol id="snapchat" viewBox="0 0 17 16"><path fill-rule="evenodd" clip-rule="evenodd" d="M8.66346 0H8.66271C8.64804 0 8.63425 6.66672e-08 8.62112 0.000176493C8.51644 0.00123489 8.34435 0.00291043 8.32889 0.00308685C7.9515 0.00308685 7.19642 0.0564488 6.38535 0.41481C5.92161 0.619569 5.50448 0.896432 5.1456 1.23773C4.71772 1.64438 4.36915 2.14576 4.10975 2.72815C3.72985 3.58088 3.82003 5.01719 3.89246 6.17144L3.89273 6.17324C3.90048 6.29686 3.90863 6.42594 3.91608 6.55172C3.86034 6.57734 3.76998 6.60437 3.6368 6.60437C3.42251 6.60437 3.16769 6.53579 2.87961 6.40067C2.79484 6.36116 2.69809 6.34118 2.59135 6.34118C2.41983 6.34118 2.23903 6.39172 2.08219 6.48402C1.88486 6.6 1.75736 6.76393 1.72273 6.94567C1.69991 7.06588 1.70101 7.3035 1.96469 7.54446C2.10972 7.67712 2.32278 7.79945 2.59778 7.90825C2.66994 7.93669 2.75559 7.96386 2.8463 7.99266C3.16108 8.09281 3.63751 8.24412 3.76175 8.53681C3.8247 8.68521 3.79761 8.88049 3.68143 9.11652C3.67839 9.12296 3.67535 9.12926 3.67258 9.13588C3.64354 9.20375 3.37268 9.81789 2.81709 10.4656C2.50138 10.8339 2.15365 11.1417 1.7841 11.3808C1.33305 11.6726 0.844996 11.8634 0.333634 11.9477C0.132826 11.9807 -0.0105781 12.1598 0.000612196 12.3633C0.00404859 12.4219 0.0177942 12.4804 0.0416287 12.537C0.0418049 12.5374 0.0420255 12.5377 0.0422017 12.538C0.123398 12.7281 0.31165 12.8896 0.61771 13.0321C0.991704 13.206 1.55104 13.3522 2.28004 13.4667C2.31688 13.5368 2.35512 13.713 2.38159 13.8337C2.40931 13.9619 2.43821 14.0938 2.4794 14.2339C2.52385 14.3856 2.63915 14.567 2.93534 14.567C3.04759 14.567 3.17668 14.5416 3.32616 14.5126C3.54508 14.4696 3.84444 14.411 4.21808 14.411C4.42523 14.411 4.63992 14.4292 4.85602 14.4652C5.27257 14.5346 5.63167 14.7885 6.04717 15.0826C6.65532 15.5129 7.3437 16 8.39546 16C8.42414 16 8.45291 15.9991 8.48133 15.9971C8.51609 15.9987 8.55917 16 8.60464 16C9.6567 16 10.3449 15.5127 10.9524 15.0828L10.9534 15.0819C11.369 14.7882 11.7277 14.5346 12.1441 14.4652C12.3601 14.4293 12.5747 14.411 12.782 14.411C13.1389 14.411 13.4215 14.4565 13.6739 14.5058C13.8386 14.5382 13.9666 14.5539 14.0648 14.5539L14.0744 14.554H14.0843C14.3009 14.554 14.4601 14.435 14.5209 14.2267C14.5612 14.0896 14.59 13.9608 14.6185 13.8304C14.6432 13.7174 14.6828 13.5361 14.7196 13.4652C15.4491 13.3506 16.0082 13.2046 16.3823 13.0308C16.6876 12.889 16.8756 12.7276 16.9573 12.5383C16.9818 12.4816 16.9961 12.4227 16.9994 12.3628C17.0109 12.1597 16.8672 11.9802 16.6663 11.9472C14.3936 11.5723 13.3698 9.23479 13.3275 9.13548C13.3247 9.12895 13.3217 9.12247 13.3184 9.11616C13.2023 8.88005 13.1754 8.68499 13.2384 8.53633C13.3624 8.2439 13.8385 8.09259 14.1535 7.99248C14.2447 7.96373 14.3307 7.93638 14.4023 7.90807C14.7124 7.78547 14.934 7.65247 15.0803 7.50142C15.2549 7.32136 15.2889 7.14884 15.2868 7.03594C15.2815 6.76278 15.0729 6.52005 14.741 6.4012C14.6289 6.35481 14.5011 6.33033 14.371 6.33033C14.2824 6.33033 14.1512 6.3425 14.027 6.40054C13.7611 6.52508 13.523 6.59317 13.3185 6.60287C13.2098 6.59736 13.1335 6.57377 13.0841 6.55123C13.0903 6.44468 13.0972 6.33523 13.1043 6.22109L13.1072 6.17223C13.1801 5.01723 13.2706 3.57982 12.8905 2.72647C12.63 2.14201 12.2802 1.63935 11.8506 1.23182C11.4903 0.890303 11.0718 0.613483 10.6063 0.408857C9.79641 0.0531415 9.04137 0 8.66346 0Z"></path></symbol>

  <symbol id="instagram2" viewBox="0 0 18 18"><path fill-rule="evenodd" clip-rule="evenodd" d="M9.00084 0C6.55657 0 6.24982 0.0106873 5.28981 0.0543748C4.33167 0.0982498 3.67766 0.249937 3.10541 0.4725C2.51346 0.702375 2.01133 1.00988 1.51108 1.51031C1.01045 2.01056 0.702945 2.51269 0.472317 3.10444C0.24919 3.67688 0.0973136 4.33106 0.0541881 5.28881C0.0112502 6.24881 0 6.55575 0 9C0 11.4443 0.0108749 11.7501 0.0543754 12.7101C0.0984383 13.6682 0.250128 14.3222 0.472505 14.8944C0.70257 15.4864 1.01007 15.9885 1.51052 16.4888C2.01058 16.9894 2.51271 17.2976 3.10428 17.5275C3.67691 17.7501 4.33111 17.9018 5.28906 17.9456C6.24907 17.9893 6.55563 18 8.99972 18C11.4442 18 11.75 17.9893 12.71 17.9456C13.6681 17.9018 14.3229 17.7501 14.8955 17.5275C15.4873 17.2976 15.9887 16.9894 16.4887 16.4888C16.9894 15.9885 17.2969 15.4864 17.5275 14.8946C17.7487 14.3222 17.9006 13.668 17.9456 12.7103C17.9888 11.7503 18 11.4443 18 9C18 6.55575 17.9888 6.249 17.9456 5.289C17.9006 4.33088 17.7487 3.67687 17.5275 3.10462C17.2969 2.51269 16.9894 2.01056 16.4887 1.51031C15.9881 1.00969 15.4875 0.702187 14.895 0.4725C14.3212 0.249937 13.6668 0.0982498 12.7087 0.0543748C11.7487 0.0106873 11.4431 0 8.99803 0H9.00084ZM8.19346 1.62188C8.43309 1.6215 8.70047 1.62188 9.00084 1.62188C11.4039 1.62188 11.6887 1.6305 12.6376 1.67363C13.5151 1.71375 13.9914 1.86038 14.3086 1.98356C14.7287 2.14669 15.0281 2.34169 15.3429 2.65669C15.6579 2.97169 15.8529 3.27169 16.0164 3.69169C16.1396 4.00856 16.2864 4.48481 16.3264 5.36231C16.3695 6.31106 16.3789 6.59606 16.3789 8.99794C16.3789 11.3998 16.3695 11.6848 16.3264 12.6336C16.2862 13.5111 16.1396 13.9873 16.0164 14.3042C15.8533 14.7242 15.6579 15.0233 15.3429 15.3381C15.0279 15.6531 14.7288 15.8481 14.3086 16.0112C13.9918 16.1349 13.5151 16.2812 12.6376 16.3213C11.6889 16.3644 11.4039 16.3738 9.00084 16.3738C6.59763 16.3738 6.31282 16.3644 5.36406 16.3213C4.48655 16.2808 4.01029 16.1342 3.69285 16.011C3.27285 15.8479 2.97284 15.6529 2.65784 15.3379C2.34284 15.0229 2.14784 14.7236 1.98433 14.3034C1.86114 13.9866 1.71433 13.5103 1.67439 12.6328C1.63127 11.6841 1.62264 11.3991 1.62264 8.99569C1.62264 6.59231 1.63127 6.30881 1.67439 5.36006C1.71452 4.48256 1.86114 4.00631 1.98433 3.68906C2.14746 3.26906 2.34284 2.96906 2.65784 2.65406C2.97284 2.33906 3.27285 2.14406 3.69285 1.98056C4.0101 1.85681 4.48655 1.71056 5.36406 1.67025C6.19431 1.63275 6.51607 1.6215 8.19346 1.61963V1.62188ZM13.805 3.11625C13.2088 3.11625 12.725 3.59944 12.725 4.19588C12.725 4.79213 13.2088 5.27588 13.805 5.27588C14.4013 5.27588 14.885 4.79213 14.885 4.19588C14.885 3.59963 14.4013 3.11587 13.805 3.11587V3.11625ZM9.00084 4.37813C6.44838 4.37813 4.37892 6.44756 4.37892 9C4.37892 11.5524 6.44838 13.6209 9.00084 13.6209C11.5533 13.6209 13.622 11.5524 13.622 9C13.622 6.44756 11.5531 4.37813 9.00066 4.37813H9.00084ZM9.00084 6C10.6576 6 12.0009 7.34306 12.0009 9C12.0009 10.6567 10.6576 12 9.00084 12C7.34389 12 6.00081 10.6567 6.00081 9C6.00081 7.34306 7.34389 6 9.00084 6Z"></path></symbol>

   <symbol id="github" viewBox="0 0 18 18"><path fill-rule="evenodd" clip-rule="evenodd" d="M9.00007 0C4.03012 0 0 4.13136 0 9.22785C0 13.305 2.5788 16.764 6.1548 17.9841C6.6046 18.0696 6.76973 17.784 6.76973 17.5402C6.76973 17.3202 6.76138 16.5933 6.75751 15.8222C4.25368 16.3804 3.72534 14.7334 3.72534 14.7334C3.31593 13.6668 2.72604 13.3832 2.72604 13.3832C1.90947 12.8105 2.7876 12.8222 2.7876 12.8222C3.69136 12.8873 4.16724 13.7732 4.16724 13.7732C4.96995 15.1839 6.27269 14.7761 6.78627 14.5403C6.86705 13.9439 7.10029 13.5368 7.35768 13.3063C5.35864 13.073 3.25721 12.2818 3.25721 8.74589C3.25721 7.73842 3.60879 6.91524 4.18453 6.26901C4.09108 6.03658 3.78302 5.09803 4.27171 3.82696C4.27171 3.82696 5.02748 3.57895 6.74737 4.77285C7.46529 4.56839 8.23521 4.46585 9.00007 4.46234C9.76494 4.46585 10.5355 4.56839 11.2547 4.77285C12.9725 3.57895 13.7272 3.82696 13.7272 3.82696C14.2171 5.09803 13.9089 6.03658 13.8155 6.26901C14.3925 6.91524 14.7417 7.73842 14.7417 8.74589C14.7417 12.2902 12.6363 13.0706 10.6322 13.299C10.955 13.5854 11.2426 14.1469 11.2426 15.0079C11.2426 16.2426 11.2322 17.2363 11.2322 17.5402C11.2322 17.7858 11.3942 18.0735 11.8504 17.9829C15.4245 16.7614 18 13.3036 18 9.22785C18 4.13136 13.9705 0 9.00007 0Z"></path></symbol>

  <symbol id="dropbox" viewBox="0 0 19 18"><path fill-rule="evenodd" clip-rule="evenodd" d="M9.51149 11.1287L13.4338 14.4439L15.1123 13.3277V14.579L9.51149 18L3.91065 14.579V13.3277L5.58917 14.4439L9.51149 11.1287ZM3.8646 6.86903L9.5 10.4135L5.58908 13.7384L0 10.0215L3.8646 6.86903ZM15.1355 6.86916L18.9999 10.0214L13.4109 13.7384L9.49993 10.4134L15.1355 6.86916ZM5.58909 1.8431e-05L9.49984 3.32478L3.86462 6.86906L1.80952e-05 3.717L5.58909 1.8431e-05ZM13.4109 0L19 3.71698L15.1354 6.86905L9.5 3.32477L13.4109 0Z"></path></symbol>

  <symbol id="arrow-left-bold" viewBox="0 0 24 24" fill="none"><path d="M12 2.00316L2.00305 12.0001L12 21.9971" stroke-width="3" stroke-miterlimit="10" stroke-linecap="round" stroke-linejoin="round"></path></symbol>

  <symbol id="arrow-right-bold" viewBox="0 0 24 24" fill="none"><path d="M12.003 21.9968L22 11.9999L12.003 2.00293" stroke-width="3" stroke-miterlimit="10" stroke-linecap="round" stroke-linejoin="round"></path></symbol> 

</svg>