<?xml version="1.0" encoding="UTF-8" standalone="no" ?>
<!DOCTYPE svg PUBLIC "-//W3C//DTD SVG 1.1//EN" "http://www.w3.org/Graphics/SVG/1.1/DTD/svg11.dtd">
<svg xmlns="http://www.w3.org/2000/svg" xmlns:xlink="http://www.w3.org/1999/xlink" version="1.1" width="1280" height="1024" viewBox="0 0 1280 1024" xml:space="preserve">
<desc>Created with Fabric.js 5.3.0</desc>
<defs>
</defs>
<g transform="matrix(1 0 0 1 640 512)" id="background-logo"  >
<rect style="stroke: none; stroke-width: 0; stroke-dasharray: none; stroke-linecap: butt; stroke-dashoffset: 0; stroke-linejoin: miter; stroke-miterlimit: 4; fill: rgb(255,255,255); fill-opacity: 0; fill-rule: nonzero; opacity: 1;"  paint-order="stroke"  x="-640" y="-512" rx="0" ry="0" width="1280" height="1024" />
</g>
<g transform="matrix(0.7953038628442698 0 0 0.7953038628442698 297.3534915001837 487.4515482370068)" id="logo-logo"  >
<g style=""  paint-order="stroke"   >
		<g transform="matrix(0.7460700846538599 0 0 0.7460700846538599 0 7.152781353375929)"  >
<g style=""  paint-order="stroke"   >
		<g transform="matrix(1 0 0 1 0 0)"  >
<path style="stroke: none; stroke-width: 1; stroke-dasharray: none; stroke-linecap: butt; stroke-dashoffset: 0; stroke-linejoin: miter; stroke-miterlimit: 4; fill: rgb(0,0,0); fill-rule: nonzero; opacity: 1;"  paint-order="stroke"  transform=" translate(-124.99997941867758, -111.195055)" d="M 248.36264 11.07152 C 247.07034 3.49961 245.25002 0.02207 242.52332 0 C 242.20522000000003 0.00215 241.89789000000002 0.11411 241.65299000000002 0.31702 C 225.54909 13.66326 182.92124 42.31076 154.43462000000002 59.86763 C 154.72971 58.9572 154.92562000000004 58.07248 154.97057000000004 57.33725 C 155.04915000000003 56.049789999999994 154.71759000000003 55.1068 153.98505000000003 54.53519 C 151.86440000000002 52.87957 149.00313000000003 53.20736 147.03266000000002 54.06692 C 145.55143 54.71334 144.30541000000002 55.66064 143.10030000000003 56.57672 C 142.71384000000003 56.8706 142.32740000000004 57.16447 141.93502000000004 57.44651 C 136.17104000000003 61.58178 129.21650000000002 63.030170000000005 121.85396000000003 64.56415 C 117.67186000000002 65.43500999999999 113.34713000000002 66.33548 109.26407000000003 67.7758 C 96.1537 72.39979 85.8812 82.38784 76.83047 91.72598 C 76.60266 91.75854000000001 76.37889 91.82744000000001 76.18405 91.97814000000001 C 69.62779 97.03918000000002 62.407889999999995 101.17499000000001 54.72456 104.27038000000002 L 53.70406 104.67675000000001 C 52.08128 105.31940000000002 50.402519999999996 105.98412000000002 48.81472 106.87006000000001 C 46.267250000000004 108.29154000000001 44.77579 110.0365 44.38127 112.05542000000001 C 44.02011 113.90749000000001 44.63478 115.95064 46.06864 117.66116000000001 C 46.989020000000004 118.75970000000001 48.12887 119.60634 49.23131 120.34669000000001 L 47.61714 122.02087000000002 C 31.94316 138.27777000000003 25.77928 143.57186000000002 6.167560000000002 153.86024 C 4.894630000000002 154.05885 3.8170800000000016 155.00669 2.960210000000002 156.68383 C -2.3225799999999985 167.02657 -0.10396999999999812 210.15923 6.211700000000002 219.90615 C 7.280640000000002 221.5553 8.507280000000002 222.39011 9.860400000000002 222.39011 C 9.917450000000002 222.39011 9.974510000000002 222.38849 10.032100000000002 222.38581 C 10.394330000000002 222.36696999999998 10.735040000000001 222.20603 10.979400000000002 221.93746 C 27.51321 203.79673 64.97877 167.65604 82.42248 151.32029999999997 C 82.458 151.39457999999996 82.48814999999999 151.47315999999998 82.52448 151.54688999999996 C 84.55632 155.66709999999995 88.10222 158.53481999999997 92.00981999999999 159.21837999999997 C 92.55935999999998 159.31416999999996 93.11158999999999 159.36046999999996 93.66112999999999 159.36046999999996 C 97.01433999999999 159.36046999999996 100.24348999999998 157.63326999999995 101.90421999999998 154.99132999999998 C 102.25568999999999 155.22304999999997 102.60526999999998 155.44843999999998 102.94785999999998 155.66223999999997 C 104.59539999999998 156.68973999999997 106.40010999999998 157.72153999999998 108.43571999999998 158.30821999999998 C 109.59346999999997 158.64190999999997 110.79264999999998 158.80230999999998 111.99398999999997 158.80230999999998 C 115.79137999999998 158.80177999999998 119.60868999999997 157.20158999999998 122.20567999999997 154.43478999999996 C 124.32847999999997 155.67219999999998 126.57991999999997 156.49139999999997 129.07975999999996 156.57347999999996 C 129.20354999999998 156.57724999999996 129.32627999999997 156.57939999999996 129.45007999999996 156.57939999999996 C 133.52505999999997 156.57939999999996 137.41502999999994 154.36078999999995 139.55922999999996 150.91620999999998 C 140.63380999999995 151.16164999999998 141.70894999999996 151.29016 142.75903999999997 151.29016 C 144.88990999999996 151.29016 146.91691999999998 150.78959999999998 148.61720999999997 149.81054999999998 C 150.30780999999996 148.83741999999998 151.82132999999996 147.33951 153.24441999999996 145.23176999999998 C 156.66355999999996 140.16993 158.08189999999996 134.25336 157.34429999999998 128.44606 C 157.95277 128.37259 158.56171999999998 128.29737999999998 159.17577999999997 128.20573 C 161.23615999999998 127.8984 163.38478999999998 127.43605 165.13782999999998 126.14374999999998 C 167.32628999999997 124.53011999999998 168.31180999999998 121.84377999999998 167.53404999999998 119.61116999999999 C 167.50961999999998 119.54105999999999 167.47403999999997 119.46934999999999 167.44549999999998 119.39829999999999 C 167.6933 119.40449 167.93986999999998 119.41470999999999 168.18908 119.41470999999999 C 169.64500999999998 119.41470999999999 171.12032 119.30329999999998 172.56709999999998 118.98626999999999 C 174.6393 118.53146999999998 179.59161999999998 117.01093999999999 180.81825999999998 112.7169 C 181.45297999999997 110.49262999999999 181.18391999999997 108.86689 180.59395999999998 107.69583 C 180.81033 107.69946 181.02649999999997 107.70968 181.24292999999997 107.70968 C 183.12997999999996 107.70968 185.01973999999998 107.56651000000001 186.90625999999997 107.21881 C 187.95904 107.0245 189.18568999999997 106.73601000000001 190.30252999999996 106.06914 C 192.25093999999996 104.90493000000001 193.52225999999996 102.68686000000001 193.54109999999997 100.41819000000001 C 193.55252999999996 99.10651000000001 193.31079999999997 98.05103000000001 192.93637999999999 97.16348 L 195.24084 97.63121000000001 C 196.87277999999998 97.96277 198.60968 98.26310000000001 200.30725999999999 98.26310000000001 C 202.29282999999998 98.26310000000001 204.22401 97.85189000000001 205.87048 96.59888000000001 C 208.65100999999999 94.48146000000001 209.42821999999998 90.28752000000001 207.72038999999998 87.27985000000001 C 209.97343999999998 85.64254000000001 228.01135999999997 72.68934000000002 243.26497999999998 66.45064 C 245.78931999999998 66.17452 247.50736999999998 62.61840000000001 248.65435 55.31938000000001 C 249.57473 49.46391000000001 250.05106 41.60296000000001 249.99563 33.184950000000015 C 249.94022 24.76748 249.36053 16.91408 248.36264 11.07152 z" stroke-linecap="round" />
</g>
		<g transform="matrix(1 0 0 1 -20.715644924540157 26.607608193227833)"  >
<path style="stroke: none; stroke-width: 1; stroke-dasharray: none; stroke-linecap: butt; stroke-dashoffset: 0; stroke-linejoin: miter; stroke-miterlimit: 4; fill: rgb(0,150,136); fill-rule: nonzero; opacity: 1;"  paint-order="stroke"  transform=" translate(-104.28433449413743, -137.80266319322783)" d="M 204.2023 94.40559 C 202.06381000000002 96.03698 198.87820000000002 95.55203 195.79169000000002 94.93467 L 159.32738 87.52718999999999 C 158.57782 87.37271999999999 157.85027 87.85779999999998 157.69593 88.60743 C 157.55262 89.34589 158.02668 90.07346 158.77624 90.22779 L 186.47724 95.84954 L 188.19684 96.20222000000001 C 189.98256 96.89682 190.8093 98.23056000000001 190.78723000000002 100.39105 C 190.77620000000002 101.70273 190.01559000000003 103.03661000000001 188.89129000000003 103.69797000000001 C 188.15269000000004 104.14995000000002 187.21575 104.35946000000001 186.41110000000003 104.51367000000002 C 183.15927000000002 105.10896000000002 179.89642000000003 105.04275000000001 176.58949000000004 104.67904000000001 C 176.14862000000005 104.56883000000002 175.74069000000003 104.52470000000001 175.39898000000005 104.54677000000001 C 173.15029000000004 104.26016000000001 170.86851000000004 103.85230000000001 168.54266000000004 103.43343000000002 C 163.58227000000005 102.54049000000002 158.45651000000004 101.62576000000001 153.30876000000004 101.90133000000002 C 152.54823000000005 101.94534000000002 151.96397000000005 102.59566000000001 152.00810000000004 103.34528000000002 C 152.05211000000003 104.10595000000002 152.69139000000004 104.70110000000001 153.46309000000005 104.65710000000001 C 158.29121000000006 104.39242000000002 163.25160000000005 105.28522000000001 168.05765000000005 106.14505000000001 C 170.37247000000005 106.55303 172.72038000000006 106.97178000000001 175.07935000000006 107.26942000000001 C 175.10141000000007 107.28045000000002 175.13445000000007 107.28045000000002 175.15651000000005 107.28045000000002 C 175.43208000000004 107.31355000000002 175.71870000000004 107.35769000000002 175.99428000000006 107.37975000000002 C 176.03835000000007 107.39079000000001 176.08248000000006 107.40182000000001 176.12654000000006 107.40182000000001 C 176.65562000000006 107.55603000000002 177.39416000000006 107.88677000000001 177.89021000000005 108.53710000000001 C 178.49646000000004 109.34189 178.58467000000005 110.4882 178.16578000000004 111.96526000000001 C 177.32801000000003 114.90847000000001 173.21642000000003 116.02181000000002 171.98185000000004 116.29739000000002 C 169.13787000000005 116.91461000000002 166.09550000000004 116.61696000000002 163.15235000000004 116.33036000000003 L 146.66180000000003 114.72103000000003 C 145.91230000000002 114.64393000000003 145.22874000000002 115.19508000000003 145.15164000000001 115.95574000000003 C 145.07454 116.70524000000003 145.63673000000003 117.38866000000003 146.38623 117.45473000000004 L 162.87678 119.07509000000005 C 162.99801 119.08612000000005 163.13035 119.09715000000004 163.2516 119.10819000000005 C 164.43107 119.25163000000005 164.86091 120.30980000000005 164.92705999999998 120.51918000000005 C 165.1145 121.03723000000005 165.05939999999998 121.59943000000005 164.86091 122.12851000000005 C 164.59636999999998 122.84517000000005 164.07832 123.49536000000005 163.50511 123.92542000000005 C 162.30362 124.80718000000005 160.74933000000001 125.18193000000005 158.7652 125.47957000000005 C 152.60326 126.39457000000006 146.98152 126.37251000000005 141.13924 125.41337000000006 C 138.94565 121.84190000000005 137.22612 118.23733000000006 136.87345 114.39028000000006 C 136.77415 113.32107000000006 136.77415 112.25187000000007 136.77415 111.11646000000006 C 136.78518 109.93705000000006 136.78518 108.72454000000006 136.66394 107.50086000000006 C 136.45444 105.34038000000005 135.71597 102.35316000000006 133.38998 100.46826000000006 C 132.93814 100.09338000000005 132.42009000000002 99.79574000000005 131.86892 99.56429000000006 C 130.87682 99.15645000000006 129.78555 98.99107000000005 128.71621 99.10141000000006 C 127.30534999999999 99.25562000000006 126.08179999999999 99.89504000000005 125.26610999999998 100.92011000000007 C 124.47248999999998 101.91221000000006 124.16380999999998 103.06969000000007 123.88822999999998 104.27117000000007 C 123.81099999999998 104.61295000000007 123.75581999999999 104.96563000000008 123.67872999999997 105.30727000000007 C 122.38897999999998 102.25386000000007 120.55924999999998 99.55326000000008 119.05998999999997 98.57232000000008 C 116.54682999999997 96.95182000000007 112.73274999999997 96.52190000000007 110.29668999999997 98.85893000000007 C 108.33454999999996 100.73280000000007 108.11413999999996 103.62085000000008 107.95980999999998 105.53885000000007 L 107.83856999999998 107.15920000000007 C 107.43071999999998 106.66308000000006 106.91266999999998 106.22227000000007 106.25130999999998 105.74835000000007 C 104.87341999999998 104.76715000000007 102.78990999999998 103.26816000000008 100.38694999999997 103.72001000000007 C 97.82951999999997 104.21600000000008 95.84544999999997 106.38751000000008 94.47858999999997 110.19055000000007 C 93.13380999999997 113.91636000000007 92.28500999999997 117.78547000000007 91.93232999999996 121.70975000000007 C 91.91026999999997 121.96326000000008 91.88818999999997 122.21677000000007 91.86612999999997 122.47028000000007 C 91.38117999999997 122.24987000000007 90.83002999999997 122.08450000000008 90.27886999999997 121.99636000000007 C 89.31972999999996 121.80891000000007 88.33879999999996 121.84188000000006 87.52308999999997 122.09539000000007 C 87.09303999999997 122.22780000000006 86.67429999999997 122.42614000000006 86.27734999999997 122.66862000000006 L 86.2663 122.66862000000006 C 85.10895000000001 123.37425000000006 84.07271 124.52056000000006 83.17991 126.07485000000005 C 81.1186 129.67942000000005 80.18166000000001 134.06658000000004 80.22566 139.88680000000005 C 80.25876000000001 143.27083000000005 80.62261000000001 146.09267000000006 81.36107 148.53989000000004 C 64.4517 164.34696000000005 26.598479999999995 200.81139000000005 9.479600000000005 219.49546000000004 C 9.192990000000005 219.29713000000004 8.862240000000005 218.92223000000004 8.520600000000005 218.40418000000003 C 7.010440000000005 216.07819000000003 5.753800000000005 211.60290000000003 4.794790000000005 206.06942000000004 C 2.0169500000000053 190.01975000000004 1.763440000000005 165.08541000000002 5.412150000000005 157.94248000000005 C 5.841930000000005 157.10471000000004 6.304950000000005 156.59769000000006 6.646600000000005 156.57563000000005 C 6.845070000000005 156.56460000000004 7.043550000000005 156.50956000000005 7.219820000000005 156.42142000000004 C 26.929090000000006 146.09267000000006 33.58708000000001 140.53713000000005 49.60351000000001 123.93643000000003 L 76.64316000000001 95.88260000000002 C 86.01278 86.16030000000002 96.62815 75.15929000000003 110.17542 70.37518000000003 C 114.08854000000001 68.99730000000002 118.32149 68.11539000000003 122.41102000000001 67.26660000000003 C 129.73036000000002 65.73451000000003 137.30322 64.15815000000002 143.54232000000002 59.68285000000002 C 143.95016 59.385200000000026 144.35801 59.07653000000003 144.76586000000003 58.767850000000024 C 145.89023000000003 57.91905000000003 146.95943000000003 57.10336000000002 148.13898000000003 56.596340000000026 C 148.80034000000003 56.30973000000002 149.64901000000003 56.08932000000003 150.47574000000003 56.11139000000003 L 150.47574000000003 56.12242000000003 C 151.09310000000002 56.13346000000003 151.69942000000003 56.276630000000026 152.20644000000004 56.64047000000003 C 152.51511000000005 57.63244000000003 151.09310000000005 61.358380000000025 150.03492000000006 62.55986000000003 C 144.25884000000005 66.06526000000002 139.23225000000005 68.99730000000002 135.36314000000004 71.08068000000003 C 135.34108000000003 71.10275000000003 135.31901000000005 71.12469000000003 135.29707000000005 71.13572000000003 C 133.01536000000004 71.09172000000004 130.72247000000004 71.01462000000004 128.44061000000005 70.84911000000004 C 128.31952000000004 70.83808000000003 128.20918000000006 70.84911000000004 128.09897000000004 70.87118000000004 C 127.49278000000004 70.97048000000004 127.01873000000003 71.47750000000003 126.96356000000004 72.11692000000004 C 126.90853000000004 72.87745000000004 127.48175000000005 73.53881000000004 128.24228000000005 73.59384000000004 C 131.40590000000006 73.82542000000004 134.60262000000006 73.93562000000004 137.77727000000004 73.93562000000004 L 138.87958000000003 73.93562000000004 C 158.00460000000004 75.58909000000004 177.78002000000004 79.27089000000004 199.25295000000003 85.22325000000004 C 200.42139000000003 85.54296000000004 201.56785000000002 85.89577000000004 202.55988000000002 86.34762000000003 C 203.59604000000002 86.83257000000003 204.48891000000003 87.43889000000003 205.10621000000003 88.29872000000003 C 206.42899 90.12849 205.99907 93.03873 204.2023 94.40559 z" stroke-linecap="round" />
</g>
		<g transform="matrix(1 0 0 1 22.14149205928345 -31.425826968100353)"  >
<path style="stroke: none; stroke-width: 1; stroke-dasharray: none; stroke-linecap: butt; stroke-dashoffset: 0; stroke-linejoin: miter; stroke-miterlimit: 4; fill: rgb(0,0,0); fill-rule: nonzero; opacity: 1;"  paint-order="stroke"  transform=" translate(-147.14147147796103, -79.76922803189964)" d="M 55.75449 106.82862 L 54.71839 107.23633 C 53.10893 107.87576 51.58774 108.48208 50.15468 109.27570999999999 C 48.34701 110.28974999999998 47.32181 111.39204999999998 47.09036 112.58263 C 46.89189 113.59666999999999 47.29987 114.83138 48.18163 115.88955 C 48.97526 116.84856 50.07757 117.60922 51.17988 118.32561 L 68.16649 100.69972 C 64.1982 103.04764 60.04248 105.09792 55.75449 106.82862 z M 96.28638 149.79657 C 94.1699 146.64384 93.60784 142.85197 93.10069999999999 139.51195 C 92.43933999999999 135.14685 91.76680999999999 130.62741000000003 91.74488 126.08591000000001 C 91.60158 125.93157000000001 91.48034 125.74413000000001 91.42517 125.52372000000001 C 91.40324 125.43545000000002 91.31496 125.32538000000001 91.19372 125.22607 C 91.11662 125.15987000000001 91.01731 125.0938 90.91815 125.03877000000001 C 90.20161999999999 124.64182000000001 89.05518 124.49865000000001 88.36085 124.71905000000001 C 87.36861 125.03877000000001 86.42078 125.95349000000002 85.57198 127.44172 C 83.76418 130.60534 82.93745 134.55155 82.98145 139.86475000000002 C 83.02559 144.29605 83.66501 147.614 84.99875999999999 150.32564000000002 C 86.61912 153.61049000000003 89.48509999999999 155.98049000000003 92.48346999999998 156.49854000000002 C 93.97141999999998 156.76308000000003 95.51481999999999 156.50957000000002 96.82649999999998 155.88132000000002 C 98.02797999999999 155.30809000000002 99.04213999999997 154.43723000000003 99.67053999999999 153.36801000000003 C 98.41376 152.35387 97.22331 151.18549 96.28638 149.79657 z M 115.5216 149.23438 C 113.50443000000001 147.40452 111.41001 145.49755 109.89986 143.02839 C 108.65425 140.98914 107.82752 138.57502 107.27636000000001 135.4445 C 106.16302000000002 129.11726000000002 106.659 122.7128 107.12202 116.51783 L 107.29843000000001 114.33528 C 106.81348000000001 111.56846999999999 106.51584000000001 110.24562999999999 106.06385000000002 109.42993 L 106.06385000000002 109.41889 C 105.73324000000002 108.79077000000001 105.30319000000001 108.47106000000001 104.65287000000002 107.99701 C 103.27498000000003 107.00491000000001 102.05144000000003 106.21127 100.90499000000003 106.43169 C 99.37290000000003 106.7183 98.08315000000003 108.30569 97.06898000000002 111.12753000000001 C 95.38241000000002 115.80130000000001 94.51168000000003 120.68459000000001 94.48961000000003 125.64498 C 94.48961000000003 127.83856 94.64395000000003 130.04317 94.88643000000003 132.24779 C 95.13993000000004 134.55158 95.48171000000004 136.84447 95.82336000000004 139.10425 C 96.28638000000004 142.15753 96.80443000000004 145.61879000000002 98.57914000000004 148.25333 C 99.43897000000004 149.54308 100.59631000000005 150.62331 101.83102000000004 151.56025 C 102.09557000000004 151.64838 102.29390000000004 151.82479 102.44825000000004 152.02328 C 103.10961000000005 152.48616 103.77110000000005 152.9271 104.41039000000005 153.32392 C 105.88744000000005 154.24996 107.48574000000005 155.16468999999998 109.19437000000005 155.6608 C 111.01320000000005 156.17899 112.95327000000005 156.16796 114.78315000000005 155.70494 C 116.69012000000005 155.21984999999998 118.47585000000005 154.24994999999998 119.86477000000005 152.88309999999998 C 118.38771 151.79167 116.95466 150.53502 115.5216 149.23438 z M 130.54607 146.14786 C 126.26910999999998 142.73073000000002 123.54643999999999 139.19223 122.20165999999999 135.33415000000002 C 120.93397999999999 131.69662000000002 120.93397999999999 127.77247000000003 121.13244999999999 124.07963000000002 C 121.35285999999999 119.89081000000002 121.82677 115.69109000000002 122.49929999999999 111.53549000000002 C 122.36689 109.49611000000003 121.52913 107.06006000000002 120.50404999999999 105.00965000000002 C 119.52299 103.03660000000002 118.37668 101.42715000000003 117.54993999999999 100.88702000000002 C 115.97358999999999 99.86195000000002 113.53738999999999 99.56430000000002 112.20364 100.84302000000002 C 111.0903 101.91223000000002 110.85884999999999 103.77519000000002 110.71555 105.74837000000002 L 110.34079999999999 110.69773000000002 L 109.87777999999999 116.72732000000002 C 109.41476999999999 122.75691000000002 108.94084999999998 128.98484000000002 109.98798999999998 134.97058 C 110.47306999999998 137.74827000000002 111.20063999999998 139.85373 112.25880999999998 141.59532000000002 C 113.54841999999998 143.72284000000002 115.49952999999998 145.48649 117.37352999999999 147.19501000000002 C 119.03802999999999 148.71633000000003 120.86789999999999 150.14925000000002 122.78589999999998 151.37279000000004 C 123.12754999999999 151.58217000000005 123.46919999999999 151.79167000000004 123.81097999999999 151.99015000000003 C 125.46443999999998 152.97109000000003 127.19513999999998 153.75382000000002 129.16817999999998 153.81989000000002 C 131.04218999999998 153.88610000000003 132.91606 153.30184000000003 134.48123999999999 152.25469 C 135.3852 151.64837 136.18986999999998 150.89889000000002 136.82929 150.03905 C 134.812 149.20128 132.77275 147.93359 130.54607 146.14786 z M 154.60941 128.72031 C 153.06629 128.84168000000003 151.53406 128.89685 150.0239 128.89685 C 147.69805 128.89685 145.40529 128.7534 143.11242 128.47783 C 143.29971999999998 128.7534 143.47627 129.02899000000002 143.66357 129.30457 C 144.09349 129.93296 143.92811 130.79279000000002 143.29971999999998 131.21154 C 142.67145 131.64159 141.81176 131.47608000000002 141.38170999999997 130.84783000000002 C 137.86540999999997 125.67793000000002 134.66882999999996 120.54127000000001 134.12857999999997 114.64395000000002 C 134.01836999999998 113.44247000000001 134.01836999999998 112.25189000000002 134.01836999999998 111.10545000000002 C 134.02942 109.94810000000003 134.02942 108.85683000000002 133.93009999999998 107.77646000000001 C 133.77590999999998 106.28851000000002 133.34598999999997 104.32636000000001 132.10036999999997 103.02558000000002 L 132.10036999999997 103.01455000000001 C 131.96808999999996 102.87124000000001 131.81375999999997 102.72807000000002 131.65941999999998 102.60670000000002 C 130.95392999999999 102.03348000000001 129.93989 101.73584000000002 129.01385 101.84617000000001 C 128.53993 101.89031000000001 127.87844 102.07762000000001 127.42658999999999 102.63980000000001 C 126.99667 103.17992000000001 126.78715999999999 103.97355 126.57779 104.88855000000001 C 126.25807999999999 106.28851 125.97147 107.69936000000001 125.70693 109.11034000000001 C 124.75896 114.09279000000001 124.14174 119.16339 123.8772 124.22307 C 123.70079 127.64007000000001 123.68976 131.2336 124.8031 134.41942 C 125.97147 137.78139000000002 128.40767 140.9119 132.26575 143.99841 C 134.93338 146.13682 137.2591 147.4376 139.58509 148.08793 C 139.81654 148.15414 140.03695000000002 148.20916 140.26838 148.2533 C 142.81478 148.82639 145.32807 148.52886999999998 147.24609 147.42656 C 148.55777 146.66589 149.78144 145.44249 150.96086 143.68973 C 152.69142 141.1323 153.84891 138.32148999999998 154.41109 135.42240999999999 C 154.82994 133.2178 154.89601 130.95802 154.60941 128.72031 z M 245.64912 11.534 C 244.56881 5.2178 243.33424000000002 3.43206 242.80514000000002 2.9360800000000005 C 224.88160000000002 17.629800000000003 179.70904000000002 47.81100000000001 151.61116000000004 64.84161 C 151.44592000000003 64.99595000000001 151.28055000000003 65.12822 151.11517000000003 65.22753 C 151.00497000000004 65.29359 150.88372000000004 65.32656 150.76236000000003 65.35966 C 149.41757000000004 66.16432 148.11693000000002 66.94705 146.86028000000002 67.68565000000001 C 144.63360000000003 69.00837000000001 142.55022000000002 70.22087 140.65429 71.30125000000001 C 159.45966 73.03182000000001 178.92638 76.73555000000002 199.98052 82.56681 C 202.0859 83.15107 204.23540000000003 83.84539000000001 205.91094 85.19018 C 207.12345000000002 84.29738 226.30364 70.35316 242.43035 63.81655 C 242.59571 63.75035 242.77212 63.71724 242.94846 63.71724 C 242.95949000000002 63.71724 244.62400000000002 63.188159999999996 245.93573 54.887739999999994 C 246.5089 51.217099999999995 246.90578 46.70869999999999 247.09314 41.770379999999996 C 247.21439 39.025639999999996 247.25845 36.1485 247.23645000000002 33.20542999999999 C 247.18135 24.92707 246.61916 17.23298 245.64912 11.534 z" stroke-linecap="round" />
</g>
		<g transform="matrix(1 0 0 1 43.22682236353529 -12.369200000000006)"  >
<path style="stroke: none; stroke-width: 1; stroke-dasharray: none; stroke-linecap: butt; stroke-dashoffset: 0; stroke-linejoin: miter; stroke-miterlimit: 4; fill: rgb(0,0,0); fill-rule: nonzero; opacity: 1;"  paint-order="stroke"  transform=" translate(-168.22680178221287, -98.82585499999999)" d="M 154.60941 128.72031 C 154.89602 130.95803 154.82995 133.21781000000001 154.41106 135.42243000000002 C 141.45893999999998 138.15613000000002 136.38835 134.27599 132.42007999999998 124.61976000000001 C 129.53189999999998 117.55406000000002 130.88785 108.33865000000002 132.10036 103.02558000000002 C 133.34598 104.32636000000002 133.7759 106.28850000000001 133.93009 107.77646000000001 C 134.02941 108.85684000000002 134.02941 109.94811000000001 134.01836 111.10545000000002 C 134.01836 112.25189000000002 134.01836 113.44247000000001 134.12857 114.64395000000002 C 134.66881999999998 120.54127000000001 137.8654 125.67793000000002 141.3817 130.84783000000002 C 141.81175 131.47608000000002 142.67145 131.64159 143.29971 131.21154 C 143.9281 130.79279000000002 144.09347 129.93296 143.66356000000002 129.30457 C 143.47626000000002 129.02900000000002 143.29971 128.75341 143.11241 128.47783 C 145.40529 128.7534 147.69804000000002 128.89685 150.02389000000002 128.89685 C 151.53406 128.89685 153.06628 128.84167 154.60941 128.72031 z M 200.47649 78.26778 C 200.47649 78.26778 169.22609 68.17060000000001 146.86028000000002 67.68565000000001 C 144.63360000000003 69.00837000000001 142.55022000000002 70.22087 140.65429 71.30125000000001 C 159.45966 73.03182000000001 178.92638 76.73555000000002 199.98052 82.56681 C 202.0859 83.15107 204.23540000000003 83.84539000000001 205.91094 85.19018 C 207.12345000000002 84.29738 226.30364 70.35316 242.43035 63.81655 C 242.59571 63.75035 242.77212 63.71724 242.94846 63.71724 C 242.95949000000002 63.71724 244.62400000000002 63.188159999999996 245.93573 54.887739999999994 C 246.5089 51.217099999999995 246.90578 46.70869999999999 247.09314 41.770379999999996 L 200.47649 78.26778 z M 122.20165 135.33415 C 120.93397 131.69662 120.93397 127.77247 121.13244 124.07963 C 121.35285 119.89080999999999 121.82676000000001 115.69108999999999 122.49929 111.53549 C 122.36688000000001 109.49611 121.52912 107.06006 120.50404 105.00965 C 119.41277000000001 110.17953999999999 115.83027 129.60219999999998 120.77962000000001 140.07413 C 123.66766000000001 146.192 129.44374000000002 149.99491 134.48123 152.25468999999998 C 135.38519000000002 151.64836999999997 136.18986 150.89889 136.82928 150.03904999999997 C 134.81198 149.20127999999997 132.77273000000002 147.93359999999998 130.54605 146.14785999999998 C 126.2691 142.73073 123.54643 139.19223 122.20165 135.33415 z M 109.89986 143.02838 C 108.65425 140.98913 107.82752 138.57501 107.27636000000001 135.44449 C 106.16302000000002 129.11725 106.659 122.71279 107.12202 116.51782 L 107.29843000000001 114.33527 C 106.81348000000001 111.56845999999999 106.51584000000001 110.24561999999999 106.06385000000002 109.42992 C 104.86237000000001 114.3132 100.86085000000001 132.85396 106.38343000000002 144.40627 C 108.62115000000001 149.08004 111.70766000000002 152.88309 114.78315000000002 155.70493000000002 C 116.69012000000002 155.21984 118.47585000000002 154.24994 119.86477000000002 152.88309 C 118.38772000000002 151.79167 116.95467000000002 150.53502 115.52161000000002 149.23438000000002 C 113.50443 147.40451 111.41001 145.49754 109.89986 143.02838 z M 96.28638 149.79657 C 94.1699 146.64384 93.60784 142.85197 93.10069999999999 139.51195 C 92.43933999999999 135.14685 91.76680999999999 130.62741000000003 91.74488 126.08591000000001 C 91.60158 125.93157000000001 91.48034 125.74413000000001 91.42517 125.52372000000001 C 91.40324 125.43545000000002 91.31496 125.32538000000001 91.19372 125.22607 C 89.92604 127.47482000000001 88.22844 132.45727 90.41099 141.24264 C 92.2079 148.47384 94.67705 153.08141999999998 96.8265 155.88133 C 98.02798 155.3081 99.04213999999999 154.43724 99.67054 153.36802 C 98.41376 152.35387 97.22331 151.18549 96.28638 149.79657 z" stroke-linecap="round" />
</g>
		<g transform="matrix(1 0 0 1 -19.66403921276607 26.61391499999999)"  >
<path style="stroke: none; stroke-width: 1; stroke-dasharray: none; stroke-linecap: butt; stroke-dashoffset: 0; stroke-linejoin: miter; stroke-miterlimit: 4; fill: rgb(0,150,136); fill-rule: nonzero; opacity: 1;"  paint-order="stroke"  transform=" translate(-105.33594020591151, -137.80897)" d="M 86.2663 122.66865 C 85.10895000000001 123.37428 84.07271 124.52059 83.17991 126.07488 C 81.1186 129.67945 80.18166000000001 134.06661 80.22566 139.88683 C 80.25876000000001 143.27086 80.62261000000001 146.0927 81.36107 148.53992 C 64.4517 164.34699 26.598479999999995 200.81142 9.479600000000005 219.49549 C 9.192990000000005 219.29716 8.862240000000005 218.92226 8.520600000000005 218.40420999999998 C 7.010440000000005 216.07822 5.753800000000005 211.60293 4.794790000000005 206.06945 L 77.18328000000001 143.40312999999998 C 77.1833 143.40312 76.64317 128.6432 86.2663 122.66865 z M 91.86611 122.47031 C 91.88817 122.21679999999999 91.91025 121.96329 91.93231 121.70978 L 90.27885 121.99638999999999 C 90.83001 122.08453 91.38116 122.2499 91.86611 122.47031 z M 139.28743 113.78411 C 137.83231 100.47931 131.86891 99.56431 131.86891 99.56431 C 132.42007 99.79576 132.93812 100.0934 133.38997 100.46828000000001 C 135.71596 102.35318000000001 136.45442 105.3404 136.66393 107.50088000000001 C 136.78518 108.72456000000001 136.78518 109.93707 136.77414 111.11648000000001 C 136.77414 112.25189 136.77414 113.32109000000001 136.87344 114.39030000000001 C 137.22611999999998 118.23735 138.94564 121.84191000000001 141.13923 125.41339 C 146.98152 126.37253000000001 152.60325 126.39459000000001 158.76519 125.47959 C 160.74931999999998 125.18194 162.30361 124.8072 163.5051 123.92544000000001 C 164.07831 123.49539000000001 164.59636 122.84519 164.8609 122.12853000000001 C 152.77966 123.70489 140.68738 126.57086 139.28743 113.78411 z M 177.89021 108.53712 C 178.49645999999998 109.34191 178.58467 110.48822 178.16577999999998 111.96528 C 177.32800999999998 114.90849 173.21641999999997 116.02183000000001 171.98184999999998 116.29741000000001 C 169.13787 116.91463000000002 166.0955 116.61698000000001 163.15234999999998 116.33038000000002 L 146.66179999999997 114.72105000000002 C 146.66179999999997 114.72105000000002 170.31735999999998 115.88956000000002 174.05419999999998 113.51957000000002 C 177.04146999999998 111.63453000000001 176.38004999999998 108.55918000000001 175.99427999999997 107.37977000000002 C 176.03834999999998 107.39081000000002 176.08247999999998 107.40184000000002 176.12653999999998 107.40184000000002 C 176.65562 107.55605 177.39417 107.88679 177.89021 108.53712 z M 190.78723 100.39104 C 190.7762 101.70272 190.01559 103.0366 188.89129 103.69796000000001 C 188.15269 104.14994000000002 187.21574999999999 104.35945000000001 186.4111 104.51366000000002 C 183.15927 105.10895000000002 179.89642 105.04274000000001 176.58949 104.67903000000001 C 176.14862000000002 104.56882000000002 175.74069 104.52469 175.39898000000002 104.54676 C 173.15029 104.26015000000001 170.86851000000001 103.85229000000001 168.54266 103.43342000000001 C 163.58227000000002 102.54048000000002 158.45651 101.62575000000001 153.30876 101.90132000000001 C 153.30876 101.90132000000001 162.13826 100.54537000000002 172.56611 101.82409000000001 C 182.74038000000002 103.05867 187.97636 102.50752000000001 186.47723000000002 95.84953000000002 L 188.19683000000003 96.20221000000002 C 189.98256 96.89681 190.8093 98.23056 190.78723 100.39104 z M 204.2023 94.40559 C 202.06381000000002 96.03698 198.87820000000002 95.55203 195.79169000000002 94.93467 L 159.32738 87.52718999999999 C 159.32738 87.52718999999999 193.71941 92.61971 198.6467 92.98356999999999 C 202.46071 93.27017999999998 203.39765 88.89405 202.55988000000002 86.34764999999999 C 203.59604000000002 86.83259999999999 204.48891000000003 87.43891999999998 205.10621000000003 88.29874999999998 C 206.42899 90.12849 205.99907 93.03873 204.2023 94.40559 z M 150.03493 62.55989 C 144.25885 66.06529 139.23226 68.99733 135.36315 71.08071000000001 C 135.34108999999998 71.10278000000001 135.31902 71.12472000000001 135.29708 71.13575000000002 C 133.01537 71.09175000000002 130.72248 71.01465000000002 128.44062 70.84914000000002 C 128.31953 70.83811000000001 128.20919 70.84914000000002 128.09897999999998 70.87121000000002 C 128.09897999999998 70.87121000000002 151.69943999999998 63.48580000000002 150.47576999999998 56.122450000000015 C 151.09312999999997 56.133490000000016 151.69944999999998 56.276660000000014 152.20647 56.64050000000002 C 152.51512 57.63247 151.09311 61.35841 150.03493 62.55989 z" stroke-linecap="round" />
</g>
</g>
</g>
		<g transform="matrix(-0.9808531594094084 0 0 -0.9808531594094084 0 0)"  >
<g style=""  paint-order="stroke"   >
		<g transform="matrix(1 0 0 1 17.549999999999997 -17.54562504863057)"  >
<path style="stroke: none; stroke-width: 1; stroke-dasharray: none; stroke-linecap: butt; stroke-dashoffset: 0; stroke-linejoin: miter; stroke-miterlimit: 4; fill: rgb(0,150,136); fill-rule: nonzero; opacity: 1;"  paint-order="stroke"  transform=" translate(-142.54937505571735, -107.44937494429591)" d="M 218.45 31.55 C 260.51 73.61 260.52 141.83 218.45 183.9 C 200.17 202.18 176.95999999999998 212.51 153.08999999999997 214.9 C 153.23999999999998 214.86 153.39999999999998 214.82 153.55999999999997 214.77 C 169.16999999999996 210.51000000000002 183.95 202.27 196.21999999999997 190 C 233.83999999999997 152.38 233.83999999999997 91.4 196.21999999999997 53.78 C 158.59999999999997 16.159999999999997 97.61 16.16 59.99 53.78 C 47.7 66.07 39.46 80.87 35.21 96.52 C 35.17 96.64999999999999 35.13 96.77 35.1 96.92 C 37.49 73.05 47.82 49.84 66.1 31.560000000000002 C 108.17 -10.52 176.38 -10.52 218.45 31.55 z" stroke-linecap="round" />
</g>
		<g transform="matrix(1 0 0 1 -3.3193750557173445 3.3156250557041034)"  >
<path style="stroke: none; stroke-width: 1; stroke-dasharray: none; stroke-linecap: butt; stroke-dashoffset: 0; stroke-linejoin: miter; stroke-miterlimit: 4; fill: rgb(0,0,0); fill-rule: nonzero; opacity: 1;"  paint-order="stroke"  transform=" translate(-121.68, -128.31062504863058)" d="M 243.24 155.96 C 243.28 155.88 243.33 155.81 243.36 155.72 C 238.21 177.03 227.32000000000002 197.22 210.69 213.84 C 162.49 262.04 84.34 262.04 36.150000000000006 213.85 C -12.049999999999997 165.64999999999998 -12.049999999999997 87.5 36.150000000000006 39.29999999999998 C 52.78 22.67 72.97 11.79 94.28 6.63 C 94.19 6.66 94.12 6.71 94.04 6.75 C 94.01 6.76 94 6.77 93.99 6.77 C 82.16 12.19 71.06 19.76 61.32 29.5 C 17.369999999999997 73.45 17.369999999999997 144.72 61.33 188.67 C 105.28999999999999 232.61999999999998 176.54 232.62 220.49 188.67 C 230.22 178.94 237.81 167.85 243.23000000000002 156.01999999999998 C 243.24 156 243.24 155.98 243.24 155.96 z" stroke-linecap="round" />
</g>
		<g transform="matrix(1 0 0 1 3.3224998933924184 -3.326249992926492)"  >
<path style="stroke: none; stroke-width: 1; stroke-dasharray: none; stroke-linecap: butt; stroke-dashoffset: 0; stroke-linejoin: miter; stroke-miterlimit: 4; fill: rgb(0,0,0); fill-rule: nonzero; opacity: 1;"  paint-order="stroke"  transform=" translate(-128.32187494910977, -121.66874999999999)" d="M 220.49 188.67 C 230.22 178.94 237.81 167.85 243.23000000000002 156.01999999999998 C 237.62 172.83999999999997 228.13000000000002 188.64 214.73000000000002 202.04 C 168.68 248.08999999999997 94.01000000000002 248.08999999999997 47.96000000000001 202.04 C 1.9 155.98 1.9 81.32 47.95 35.26 C 61.34 21.869999999999997 77.15 12.369999999999997 93.99000000000001 6.759999999999998 C 82.16 12.19 71.06 19.76 61.32 29.5 C 17.369999999999997 73.45 17.369999999999997 144.72 61.33 188.67 C 105.28999999999999 232.61999999999998 176.54 232.63 220.49 188.67 z" stroke-linecap="round" />
</g>
		<g transform="matrix(1 0 0 1 11.354374944282611 -11.358125051792499)"  >
<path style="stroke: none; stroke-width: 1; stroke-dasharray: none; stroke-linecap: butt; stroke-dashoffset: 0; stroke-linejoin: miter; stroke-miterlimit: 4; fill: rgb(0,150,136); fill-rule: nonzero; opacity: 1;"  paint-order="stroke"  transform=" translate(-136.35374999999996, -113.63687494113398)" d="M 207.64 42.36 C 247.45 82.17 247.45 146.70999999999998 207.64 186.51999999999998 C 192.32999999999998 201.82999999999998 173.36999999999998 211.24999999999997 153.56 214.76999999999998 C 169.17000000000002 210.51 183.95 202.26999999999998 196.22 189.99999999999997 C 233.84 152.37999999999997 233.84 91.39999999999998 196.22 53.77999999999997 C 158.6 16.159999999999968 97.61 16.16 59.99 53.78 C 47.7 66.07 39.46 80.87 35.21 96.52 C 38.72 76.67999999999999 48.15 57.69 63.480000000000004 42.37 C 103.29 2.55 167.83 2.55 207.64 42.36 z" stroke-linecap="round" />
</g>
</g>
</g>
</g>
</g>
<g transform="matrix(1.9211538461538462 0 0 1.9211538461538462 683.7839340265216 478.87419962585)" id="text-logo"  >
<g style=""  paint-order="stroke"   >
		<g transform="matrix(1 0 0 1 0 0)" id="text-logo-path-0"  >
<path style="stroke: none; stroke-width: 0; stroke-dasharray: none; stroke-linecap: butt; stroke-dashoffset: 0; stroke-linejoin: miter; stroke-miterlimit: 4; fill: rgb(0,0,0); fill-rule: nonzero; opacity: 1;"  paint-order="stroke"  transform=" translate(-128.795, 43.575)" d="M 9.46 -87.15 L 9.46 0 L 29.38 0 L 29.38 -32.99 L 66.73 -32.99 L 66.73 0 L 86.65 0 L 86.65 -87.15 L 66.73 -87.15 L 66.73 -51.67 L 29.38 -51.67 L 29.38 -87.15 Z M 104.08 -87.15 L 104.08 0 L 168.58 0 L 168.58 -18.68 L 124.01 -18.68 L 124.01 -34.24 L 159.86 -34.24 L 159.86 -51.67 L 124.01 -51.67 L 124.01 -68.48 L 168.58 -68.48 L 168.58 -87.15 Z M 183.64 -87.15 L 183.64 0 L 248.13 0 L 248.13 -18.68 L 203.56 -18.68 L 203.56 -87.15 Z" stroke-linecap="round" />
</g>
</g>
</g>
<g transform="matrix(1.9211538461538462 0 0 1.9211538461538462 1006.8883560514275 480.0587724881024)" id="tagline-6430dfa2-44d6-4d58-a1ba-0d8a83c9e713-logo"  >
<g style=""  paint-order="stroke"   >
		<g transform="matrix(1 0 0 1 0 0)" id="tagline-6430dfa2-44d6-4d58-a1ba-0d8a83c9e713-logo-path-0"  >
<path style="stroke: none; stroke-width: 0; stroke-dasharray: none; stroke-linecap: butt; stroke-dashoffset: 0; stroke-linejoin: miter; stroke-miterlimit: 4; fill: rgb(0,150,136); fill-rule: nonzero; opacity: 1;"  paint-order="stroke"  transform=" translate(-43.83500000000001, 43.215)" d="M 8.77 0 L 28.52 0 L 28.52 -18.89 L 45.32 -18.89 C 64.33 -18.89 78.9 -32.84 78.9 -52.85 C 78.9 -71.86 65.07 -86.43 45.32 -86.43 L 8.77 -86.43 Z M 28.52 -37.41 L 28.52 -67.91 L 42.6 -67.91 C 51.37 -67.91 57.91 -61.74 57.91 -52.72 C 57.91 -43.83 51.86 -37.41 42.6 -37.41 Z" stroke-linecap="round" />
</g>
</g>
</g>
</svg>