<svg width="60" height="60" viewBox="0 0 60 60" fill="none" xmlns="http://www.w3.org/2000/svg">
<path d="M56.0586 32.8125C55.6836 32.25 55.1211 31.875 54.3711 31.875C50.2461 31.875 46.3086 33.75 43.8711 37.125L42.1836 39.375C40.1211 41.8125 36.9336 43.125 33.7461 43.125H28.1211C26.9961 43.125 26.2461 42.375 26.2461 41.25C26.2461 40.125 26.9961 39.375 28.1211 39.375H31.6836C34.6836 39.375 37.4961 36.9375 37.4961 33.9375V33.75C37.4961 32.8125 36.5586 31.875 35.6211 31.875H24.1836C17.4336 31.875 11.9961 34.875 8.99609 39.75L3.93359 47.625C3.55859 48.1875 3.55859 48.9375 3.93359 49.5L9.55859 58.875C9.74609 59.25 10.3086 59.625 10.6836 59.8125C10.8711 59.8125 10.8711 59.8125 11.0586 59.8125C11.4336 59.8125 11.8086 59.625 12.1836 59.4375C19.3086 54.75 27.5586 52.3125 35.9961 52.3125C42.1836 52.3125 47.8086 48.9375 50.8086 43.5L55.8711 34.5C56.2461 34.125 56.2461 33.375 56.0586 32.8125Z" fill="#009688"/>
<path d="M24.1875 28.125H35.625C38.625 28.125 41.25 30.5625 41.25 33.5625V33.9375L52.875 21.9375C57.375 17.25 57.375 9.9375 52.875 5.25C50.625 3.1875 47.8125 1.875 44.8125 1.875C41.8125 1.875 38.8125 3.1875 36.5625 5.4375L35.625 6.375L34.6875 5.4375C32.4375 3.1875 29.625 1.875 26.4375 1.875C23.4375 1.875 20.625 3.1875 18.375 5.4375C13.875 10.125 13.875 17.4375 18.375 22.125L24.1875 28.125ZM26.25 16.875H29.25L32.4375 13.6875C32.8125 13.3125 33.375 13.125 34.125 13.125C34.6875 13.3125 35.25 13.6875 35.4375 14.0625L37.3125 17.8125L39.5625 12.375C39.75 11.8125 40.3125 11.25 41.0625 11.25C41.8125 11.25 42.375 11.4375 42.75 12L46.5 17.625C47.0625 18.5625 46.875 19.6875 45.9375 20.25C45 20.8125 43.875 20.625 43.3125 19.6875L41.625 17.0625L39.1875 23.0625C39 23.8125 38.25 24.375 37.5 24.375C36.75 24.375 36.1875 24 35.8125 23.25L33.1875 18L31.3125 19.875C30.9375 20.4375 30.5625 20.625 30 20.625H26.25C25.125 20.625 24.375 19.875 24.375 18.75C24.375 17.625 25.125 16.875 26.25 16.875Z" fill="#009688"/>
</svg>
