<svg width="26" height="26" viewBox="0 0 26 26" fill="none" xmlns="http://www.w3.org/2000/svg">
<path d="M18.0269 14.5241L16.1319 16.4191C15.5703 16.9807 14.6583 16.9807 14.0967 16.4191L9.58091 11.9033C9.01932 11.3417 9.01932 10.4297 9.58091 9.86813L11.4759 7.97311C12.0375 7.41152 12.0375 6.49953 11.4759 5.93794L6.96015 1.42119C6.39855 0.859602 5.48657 0.859602 4.92497 1.42119L2.53076 3.81541C0.744225 5.60194 0.489828 8.41663 1.93461 10.4902C5.62096 15.7788 10.2212 20.379 15.5098 24.0654C17.5824 25.5102 20.3971 25.2558 22.1846 23.4692L24.5788 21.075C25.1404 20.5134 25.1404 19.6014 24.5788 19.0399L20.063 14.5241C19.5005 13.9615 18.5894 13.9615 18.0269 14.5241Z" stroke="#009688" stroke-miterlimit="10" stroke-linecap="round" stroke-linejoin="round"/>
</svg>
