<svg width="60" height="60" viewBox="0 0 60 60" fill="none" xmlns="http://www.w3.org/2000/svg">
<path d="M38.4368 5.625C37.3118 5.625 36.3743 5.8125 35.2493 6C33.1868 3.9375 29.4368 3.9375 27.3743 6C25.8743 7.5 24.7493 11.8125 24.3743 14.0625C23.0618 14.8125 21.1868 14.8125 20.0618 13.5C19.3118 12.75 18.1868 12.75 17.4368 13.5C16.6868 14.25 16.6868 15.375 17.4368 16.125C18.7493 17.8125 20.6243 18.375 22.4993 18.375C23.9993 18.375 25.4993 17.8125 26.8118 16.875C29.0618 16.5 33.7493 15.375 35.4368 13.875C36.5618 12.75 37.1243 11.0625 37.1243 9.375C37.4993 9.375 37.8743 9.375 38.4368 9.375C45.1868 9.375 50.6243 14.8125 50.6243 21.5625C50.6243 28.3125 45.1868 33.75 38.4368 33.75H32.4368L44.2493 25.875C44.9993 25.5 45.1868 24.5625 44.9993 23.8125C44.8118 23.0625 44.0618 22.5 43.1243 22.5H9.37427C8.62427 22.5 7.87427 23.0625 7.49927 23.8125C7.31177 24.5625 7.49927 25.5 8.24927 25.875L20.2493 33.75C17.2493 34.5 14.9993 37.125 14.9993 40.3125C14.9993 43.875 17.9993 46.875 21.5618 46.875H24.3743V52.5H20.6243C19.4993 52.5 18.7493 53.25 18.7493 54.375C18.7493 55.5 19.4993 56.25 20.6243 56.25H29.0618C32.6243 56.25 35.6243 53.25 35.6243 49.6875C35.6243 46.125 32.6243 43.125 29.0618 43.125H28.1243V37.5H38.4368C47.2493 37.5 54.3743 30.375 54.3743 21.5625C54.3743 12.75 47.2493 5.625 38.4368 5.625ZM18.7493 40.3125C18.7493 38.8125 20.0618 37.5 21.5618 37.5H24.3743V43.125H21.5618C20.0618 43.125 18.7493 41.8125 18.7493 40.3125ZM31.8743 49.6875C31.8743 51.1875 30.5618 52.5 29.0618 52.5H28.1243V46.875H29.0618C30.5618 46.875 31.8743 48.1875 31.8743 49.6875Z" fill="#009688"/>
</svg>
