<svg width="60" height="60" viewBox="0 0 60 60" fill="none" xmlns="http://www.w3.org/2000/svg">
<path d="M55.6797 28.6893C54.9297 27.9393 53.8047 27.9393 53.0547 28.6893C51.9297 29.8143 50.0547 30.0018 48.7422 29.0643C48.5547 25.3143 47.2422 21.9393 45.1797 19.1268C47.4297 18.0018 49.1172 15.5643 49.1172 12.7518C49.1172 11.6268 48.3672 10.8768 47.2422 10.8768C46.1172 10.8768 45.3672 11.6268 45.3672 12.7518C45.3672 14.4393 44.2422 15.7518 42.5547 16.1268C39.9297 13.6893 36.7422 12.1893 32.9922 11.4393C33.7422 9.00183 33.1797 6.18933 31.3047 4.12683C30.5547 3.37683 29.4297 3.37683 28.6797 4.12683C27.9297 4.87683 27.9297 6.00183 28.6797 6.75183C29.8047 8.06433 29.9922 9.93933 29.0547 11.2518C25.3047 11.4393 21.9297 12.7518 19.1172 14.8143C17.8047 12.5643 15.5547 10.8768 12.7422 10.8768C11.6172 10.8768 10.8672 11.6268 10.8672 12.7518C10.8672 13.8768 11.6172 14.6268 12.7422 14.6268C14.4297 14.6268 15.7422 15.7518 16.1172 17.4393C13.6797 20.0643 12.1797 23.2518 11.4297 27.0018C8.99219 26.2518 6.17969 26.8143 4.11719 28.6893C3.36719 29.4393 3.36719 30.5643 4.11719 31.3143C4.86719 32.0643 5.99219 32.0643 6.74219 31.3143C8.05469 30.1893 9.92969 30.0018 11.2422 30.9393C11.4297 34.6893 12.7422 38.0643 14.8047 40.8768C12.5547 42.0018 10.8672 44.4393 10.8672 47.2518C10.8672 48.3768 11.6172 49.1268 12.7422 49.1268C13.8672 49.1268 14.6172 48.3768 14.6172 47.2518C14.6172 45.5643 15.7422 44.2518 17.4297 43.8768C20.0547 46.3143 23.2422 47.8143 26.9922 48.5643C26.2422 51.0018 26.8047 53.8143 28.6797 55.8768C29.0547 56.2518 29.6172 56.4393 29.9922 56.4393C30.3672 56.4393 30.9297 56.2518 31.3047 55.8768C32.0547 55.1268 32.0547 54.0018 31.3047 53.2518C30.1797 52.1268 29.9922 50.2518 30.9297 48.9393C34.6797 48.7518 38.0547 47.4393 40.8672 45.3768C41.9922 47.6268 44.4297 49.3143 47.2422 49.3143C48.3672 49.3143 49.1172 48.5643 49.1172 47.4393C49.1172 46.3143 48.3672 45.5643 47.2422 45.5643C45.5547 45.5643 44.2422 44.4393 43.8672 42.7518C46.3047 40.1268 47.8047 36.9393 48.5547 33.1893C49.3047 33.3768 50.0547 33.5643 50.6172 33.5643C52.4922 33.5643 54.3672 32.8143 55.6797 31.5018C56.4297 30.5643 56.4297 29.4393 55.6797 28.6893ZM25.3047 39.3768C22.6797 39.3768 20.6172 37.3143 20.6172 34.6893C20.6172 32.0643 22.6797 30.0018 25.3047 30.0018C27.9297 30.0018 29.9922 32.0643 29.9922 34.6893C29.9922 37.3143 27.9297 39.3768 25.3047 39.3768ZM29.4297 21.9393L23.8047 27.5643C23.4297 27.9393 23.0547 28.1268 22.4922 28.1268C21.9297 28.1268 21.5547 27.9393 21.1797 27.5643C20.4297 26.8143 20.4297 25.6893 21.1797 24.9393L26.8047 19.3143C27.5547 18.5643 28.6797 18.5643 29.4297 19.3143C30.1797 20.0643 30.1797 21.1893 29.4297 21.9393ZM36.9297 30.5643C37.1172 30.7518 37.4922 31.3143 37.4922 31.8768C37.4922 33.0018 36.7422 33.7518 35.6172 33.7518C34.4922 33.7518 33.7422 33.0018 33.7422 31.8768C33.7422 31.1268 34.1172 30.7518 34.3047 30.5643C34.6797 30.1893 34.8672 29.6268 34.8672 29.0643C34.8672 28.5018 34.6797 27.9393 34.3047 27.5643C34.1172 27.3768 33.7422 27.0018 33.7422 26.2518C33.7422 25.1268 34.4922 24.3768 35.6172 24.3768C36.7422 24.3768 37.4922 25.1268 37.4922 26.2518C37.4922 27.0018 37.1172 27.3768 36.9297 27.5643C36.5547 27.9393 36.3672 28.5018 36.3672 29.0643C36.3672 29.6268 36.3672 30.1893 36.9297 30.5643Z" fill="#009688"/>
</svg>
